<svg width="516" height="516" viewBox="0 0 516 516" fill="none" xmlns="http://www.w3.org/2000/svg">
<path d="M425.7 0H90.3C40.4287 0 0 40.4287 0 90.3V425.7C0 475.571 40.4287 516 90.3 516H425.7C475.571 516 516 475.571 516 425.7V90.3C516 40.4287 475.571 0 425.7 0Z" fill="#2E0501"/>
<path d="M262.285 315.068H184.645L165.234 373.987C165.011 375.783 163.784 376.681 161.553 376.681H126.414C124.183 376.681 123.402 375.558 124.072 373.314L193.68 173.325C195.242 169.959 196.246 163.674 196.692 154.471C196.692 153.125 197.473 152.451 199.035 152.451H247.225C248.341 152.451 249.233 153.012 249.902 154.135L327.543 373.65C328.212 375.671 327.543 376.681 325.535 376.681H286.045C284.484 376.681 283.368 375.895 282.699 374.324L262.285 315.068ZM193.346 282.41H253.584C252.691 279.268 248.006 265.015 239.528 239.652C231.273 214.064 225.807 196.556 223.13 187.129H222.795C220.118 198.576 210.302 230.337 193.346 282.41Z" fill="#F2A032"/>
<path d="M348.32 373.65V215.41C348.32 213.615 349.213 212.717 350.997 212.717H388.144C389.929 212.717 390.821 213.615 390.821 215.41V373.987C390.821 375.783 389.929 376.681 388.144 376.681H351.332C349.324 376.681 348.32 375.671 348.32 373.65ZM386.136 178.712C382.12 182.752 376.654 184.773 369.738 184.773C362.822 184.773 357.356 182.752 353.34 178.712C349.324 174.672 347.316 169.173 347.316 162.215C347.316 155.481 349.436 149.982 353.675 145.718C357.914 141.453 363.38 139.321 370.073 139.321C376.766 139.321 382.12 141.453 386.136 145.718C390.152 149.982 392.16 155.481 392.16 162.215C392.16 169.173 390.152 174.672 386.136 178.712Z" fill="#F2A032"/>
</svg>
