<svg width="510" height="516" viewBox="0 0 510 516" fill="none" xmlns="http://www.w3.org/2000/svg">
<path d="M420.171 0H89.1273C39.9036 0 0 40.4287 0 90.3V425.7C0 475.571 39.9036 516 89.1273 516H420.171C469.395 516 509.299 475.571 509.299 425.7V90.3C509.299 40.4287 469.395 0 420.171 0Z" fill="#430C1F"/>
<path d="M188.088 157.23V373.213C188.088 375.229 187.198 376.237 185.418 376.237H150.367C148.587 376.237 147.696 375.229 147.696 373.213V157.23C147.696 155.438 148.587 154.542 150.367 154.542H185.751C187.309 154.542 188.088 155.438 188.088 157.23Z" fill="#EC4E68"/>
<path d="M296.794 379.26C271.869 379.26 251.952 372.206 237.041 358.098C222.131 343.99 214.676 323.164 214.676 295.621C214.676 270.54 222.687 249.938 238.71 233.815C254.734 217.692 276.098 209.63 302.803 209.63C309.479 209.63 315.265 210.19 320.161 211.31V138.755C320.161 137.411 320.829 136.74 322.164 136.74H358.884C359.996 136.74 360.553 137.411 360.553 138.755V339.959C360.553 348.469 360.887 355.859 361.554 362.129C361.777 363.472 361.22 364.48 359.885 365.152C340.524 374.557 319.494 379.26 296.794 379.26ZM320.161 346.006V242.212C315.71 239.749 309.702 238.517 302.135 238.517C288.56 238.517 277.544 243.332 269.088 252.961C260.631 262.59 256.403 276.25 256.403 293.941C256.403 312.751 260.52 326.635 268.754 335.593C277.21 344.55 287.892 349.029 300.8 349.029C308.812 349.029 315.265 348.021 320.161 346.006Z" fill="#EC4E68"/>
</svg>
