<svg width="516" height="516" viewBox="0 0 516 516" fill="none" xmlns="http://www.w3.org/2000/svg">
<path d="M195.71 514.807C187 512.762 179.708 507.98 169.506 497.617C152.466 480.305 138.631 473.098 114.594 469C89.654 464.75 78.5756 455.573 71.9135 433.653C63.6883 406.597 55.0933 393.64 36.2079 379.829C14.7819 364.161 9.28674 350.341 14.5133 325.303C19.3569 302.115 17.5031 285.627 7.66636 264.426C-4.07258 239.136 -2.62393 225.621 14.0466 204.895C29.3301 185.901 34.1252 173.341 36.4149 146.342C38.7222 119.09 46.3793 107.912 68.9326 98.8655C87.7519 91.3147 103.854 78.2053 112.78 63.1691C123.101 45.7786 124.607 43.7862 131.005 39.0604C141.326 31.4355 149.67 29.3254 165.561 30.3107C193.169 32.024 207.964 28.7412 226.501 16.7916C250.67 1.2147 265.329 1.2147 289.498 16.7916C308.04 28.7412 322.835 32.024 350.438 30.3107C376.545 28.6889 387.408 35.4725 403.321 63.3434C411.207 77.1503 427.323 90.591 444.966 98.0677C470.091 108.714 477.391 118.431 479.245 143.682C481.253 171.03 486.916 186.319 501.917 204.895C518.623 225.582 520.081 239.11 508.333 264.426C498.5 285.627 496.642 302.115 501.486 325.303C506.717 350.341 501.217 364.161 479.796 379.829C460.91 393.64 452.315 406.597 444.09 433.653C437.428 455.573 426.345 464.75 401.41 469C377.315 473.107 363.472 480.335 346.493 497.673C327.674 516.886 314.182 520.06 287.873 511.445C266.355 504.405 249.785 504.374 228.355 511.341C213.34 516.219 205.339 517.069 195.71 514.807Z" fill="black" fill-opacity="0.2"/>
<path d="M195.71 509.702C187 507.653 179.708 502.871 169.506 492.508C152.466 475.2 138.631 467.989 114.594 463.896C89.654 459.645 78.5756 450.464 71.9135 428.548C63.6883 401.488 55.0933 388.531 36.2079 374.72C14.7819 359.052 9.28674 345.236 14.5133 320.194C19.3569 297.006 17.5031 280.518 7.66636 259.317C-4.07258 234.027 -2.62393 220.512 14.0466 199.791C29.3301 180.792 34.1252 168.236 36.4149 141.233C38.7222 113.981 46.3793 102.803 68.9326 93.7566C87.7519 86.2057 103.854 73.0964 112.78 58.0601C123.101 40.6697 124.607 38.6773 131.005 33.9515C141.326 26.3266 149.67 24.2165 165.561 25.2018C193.169 26.9151 207.964 23.6323 226.501 11.6827C250.67 -3.89422 265.329 -3.89422 289.498 11.6827C308.04 23.6323 322.835 26.9151 350.438 25.2018C376.545 23.58 387.408 30.3636 403.321 58.2345C411.207 72.0414 427.323 85.4821 444.966 92.9588C470.091 103.605 477.391 113.322 479.245 138.573C481.253 165.921 486.916 181.21 501.917 199.791C518.623 220.473 520.081 234.001 508.333 259.317C498.5 280.518 496.642 297.006 501.486 320.194C506.717 345.236 501.217 359.052 479.796 374.72C460.91 388.531 452.315 401.488 444.09 428.548C437.428 450.464 426.345 459.645 401.41 463.896C377.315 467.998 363.472 475.231 346.493 492.565C327.674 511.782 314.182 514.951 287.873 506.341C266.355 499.296 249.785 499.265 228.355 506.232C213.34 511.11 205.339 511.96 195.71 509.702Z" fill="white"/>
<path d="M350.491 233.778C348.866 230.491 350.258 226.554 353.573 224.945C356.889 223.337 360.87 224.714 362.494 227.997C364.119 231.28 362.728 235.221 359.412 236.83C356.096 238.438 352.116 237.061 350.491 233.778ZM382.753 299.433C381.129 296.151 382.52 292.21 385.836 290.601C389.151 288.992 393.132 290.374 394.757 293.657C396.381 296.94 394.99 300.876 391.674 302.485C388.359 304.094 384.378 302.716 382.753 299.433ZM385.571 214.242C364.352 199.241 336.665 195.365 311.034 205.183L381.093 347.821C404.703 333.935 418.697 309.94 419.89 284.166L446.481 286.041C446.845 286.066 447.211 286.02 447.557 285.905C447.903 285.789 448.222 285.607 448.497 285.369C448.771 285.13 448.995 284.84 449.155 284.516C449.316 284.191 449.41 283.838 449.431 283.477C449.458 283.117 449.412 282.755 449.296 282.412C449.18 282.07 448.996 281.754 448.756 281.482C448.515 281.21 448.222 280.988 447.895 280.83C447.567 280.671 447.211 280.578 446.846 280.556L419.921 278.651C419.657 267.425 416.94 255.968 411.533 244.938C406.13 233.939 398.702 224.749 389.948 217.591L405.069 195.431C405.466 194.83 405.61 194.098 405.468 193.394C405.327 192.689 404.912 192.068 404.312 191.663C403.713 191.259 402.977 191.104 402.262 191.231C401.548 191.358 400.913 191.758 400.494 192.344L385.571 214.212" fill="#3DDC84"/>
<path d="M320.981 267.949C301.219 277.405 279.965 282.196 257.817 282.196C233.683 282.214 209.925 276.281 188.687 264.934C167.448 253.586 149.398 237.181 136.165 217.199C134.078 214.047 129.767 213.293 126.685 215.525L101.252 234.071C98.3679 236.172 97.703 240.178 99.7241 243.134C117.123 268.833 140.649 289.891 168.223 304.446C195.797 319 226.569 326.603 257.817 326.581C286.763 326.581 314.583 320.312 340.478 307.935L320.981 267.949ZM243.828 110.144H271.348V80.0413C271.348 72.521 265.179 66.4176 257.588 66.4176C249.992 66.4176 243.828 72.521 243.828 80.0413V110.144Z" fill="#4285F4"/>
<path d="M221.777 168.908L127.178 361.677C125.133 365.834 124.025 370.381 123.929 375.004L123.365 400.251C123.233 406.786 130.859 410.461 135.967 406.324L155.662 390.302C159.277 387.371 162.207 383.699 164.249 379.538L257.487 189.49L221.807 168.939L221.777 168.908ZM391.274 374.974C391.177 370.344 390.049 365.814 388.024 361.646L293.43 168.873L257.751 189.49L350.989 379.469C353.039 383.625 355.967 387.297 359.575 390.237L379.27 406.258C384.378 410.396 392.035 406.716 391.872 400.185L391.309 374.939L391.274 374.974Z" fill="#4285F4"/>
<path d="M257.583 107.747C234.806 107.747 216.303 126.101 216.303 148.618C216.303 171.14 234.841 189.49 257.583 189.49C280.33 189.49 298.863 171.14 298.863 148.618C298.863 126.101 280.33 107.747 257.583 107.747ZM257.583 171.105C245.087 171.105 234.872 161.03 234.872 148.618C234.872 136.211 245.052 126.131 257.583 126.131C270.119 126.131 280.3 136.211 280.3 148.618C280.3 161.03 270.119 171.105 257.583 171.105Z" fill="#073042"/>
</svg>
