<svg width="516" height="516" viewBox="0 0 516 516" fill="none" xmlns="http://www.w3.org/2000/svg">
<path d="M91.375 4.15904e-05H424.625C436.628 -0.0115611 448.515 2.40461 459.606 7.11026C470.697 11.8159 480.775 18.7187 489.262 27.4235C497.749 36.1283 504.479 46.4643 509.067 57.84C513.656 69.2156 516.011 81.4075 516 93.718V422.282C516.011 434.593 513.656 446.784 509.067 458.16C504.479 469.536 497.749 479.872 489.262 488.576C480.775 497.281 470.697 504.184 459.606 508.89C448.515 513.595 436.628 516.012 424.625 516H91.375C79.3723 516.012 67.4852 513.595 56.394 508.89C45.3027 504.184 35.2251 497.281 26.7379 488.576C18.2507 479.872 11.5205 469.536 6.93251 458.16C2.34449 446.784 -0.0112721 434.593 4.05506e-05 422.282V93.718C-0.0112721 81.4075 2.34449 69.2156 6.93251 57.84C11.5205 46.4643 18.2507 36.1283 26.7379 27.4235C35.2251 18.7187 45.3027 11.8159 56.394 7.11026C67.4852 2.40461 79.3723 -0.0115611 91.375 4.15904e-05V4.15904e-05Z" fill="#000B1D"/>
<path d="M214.11 275.821C215.61 249.064 228.713 225.491 248.48 208.78C267.865 192.367 293.957 182.335 322.426 182.335C350.867 182.335 376.959 192.367 396.359 208.78C416.112 225.491 429.214 249.064 430.728 275.793C432.228 303.285 421.177 328.825 401.792 347.757C382.025 367.015 353.909 379.098 322.426 379.098C290.943 379.098 262.771 367.015 243.018 347.757C223.619 328.825 212.596 303.285 214.11 275.821V275.821Z" fill="white"/>
<path d="M266.767 278.24C267.537 264.51 274.26 252.415 284.403 243.841C294.349 235.419 307.737 230.271 322.345 230.271C336.938 230.271 350.326 235.419 360.28 243.841C370.415 252.415 377.138 264.511 377.915 278.225C378.685 292.332 373.015 305.436 363.068 315.151C352.925 325.032 338.499 331.232 322.345 331.232C306.191 331.232 291.736 325.032 281.6 315.151C271.646 305.436 265.991 292.332 266.767 278.24V278.24Z" fill="#265787"/>
<path d="M178.265 306.046C178.359 311.418 180.072 321.859 182.642 330.012C188.044 347.269 197.207 363.235 209.956 377.305C223.039 391.767 239.149 403.384 257.758 411.631C277.317 420.293 298.51 424.707 320.523 424.67C342.5 424.641 363.693 420.14 383.252 411.413C401.86 403.086 417.956 391.419 431.017 376.949C443.759 362.821 452.907 346.827 458.323 329.569C461.046 320.85 462.767 311.999 463.456 303.12C464.132 294.372 463.848 285.608 462.607 276.853C460.182 259.791 454.279 243.782 445.189 229.189C436.876 215.78 426.16 204.04 413.418 194.159L413.447 194.137L284.86 95.4056C284.744 95.3185 284.65 95.2242 284.526 95.1444C276.09 88.6683 261.903 88.6901 252.625 95.1807C243.244 101.744 242.17 112.598 250.519 119.444L250.483 119.481L304.115 163.093L140.649 163.267H140.431C126.92 163.281 113.931 172.146 111.361 183.348C108.718 194.762 117.895 204.229 131.944 204.28L131.922 204.331L214.776 204.171L66.9278 317.655C66.739 317.793 66.5357 317.938 66.3615 318.076C52.4144 328.756 47.9059 346.514 56.6909 357.753C65.6065 369.181 84.5631 369.202 98.6554 357.818L179.346 291.78C179.346 291.78 178.17 300.695 178.265 306.046V306.046ZM385.611 335.9C368.985 352.838 345.709 362.443 320.523 362.494C295.3 362.538 272.024 353.02 255.398 336.111C247.274 327.87 241.306 318.388 237.625 308.289C234.016 298.365 232.615 287.83 233.544 277.201C234.423 266.812 237.516 256.902 242.453 247.935C247.303 239.121 253.982 231.157 262.23 224.42C278.391 211.25 298.967 204.12 320.487 204.091C342.028 204.062 362.589 211.126 378.765 224.252C386.998 230.961 393.67 238.896 398.52 247.696C403.479 256.655 406.55 266.529 407.465 276.947C408.38 287.561 406.978 298.082 403.37 308.014C399.682 318.142 393.736 327.623 385.611 335.9V335.9Z" fill="#EA7600"/>
</svg>
