<svg width="516" height="516" viewBox="0 0 516 516" fill="none" xmlns="http://www.w3.org/2000/svg">
<g clip-path="url(#clip0_192_17)">
<path d="M408.5 86H384.85C379.86 61.7354 366.657 39.9329 347.467 24.2674C328.277 8.60194 304.272 0.0312723 279.5 0L236.5 0C211.728 0.0312723 187.723 8.60194 168.533 24.2674C149.343 39.9329 136.14 61.7354 131.15 86H107.5C78.9997 86.0341 51.6765 97.371 31.5237 117.524C11.371 137.676 0.0341389 165 0 193.5L0 258H516V193.5C515.966 165 504.629 137.676 484.476 117.524C464.324 97.371 437 86.0341 408.5 86ZM175.956 86C180.387 73.4675 188.581 62.61 199.419 54.9129C210.256 47.2158 223.207 43.0551 236.5 43H279.5C292.793 43.0551 305.744 47.2158 316.581 54.9129C327.419 62.61 335.613 73.4675 340.044 86H175.956Z" fill="white"/>
<path d="M279.5 322.5C279.5 328.202 277.235 333.671 273.203 337.703C269.171 341.735 263.702 344 258 344C252.298 344 246.829 341.735 242.797 337.703C238.765 333.671 236.5 328.202 236.5 322.5V301H0V408.5C0.0341389 437 11.371 464.324 31.5237 484.476C51.6765 504.629 78.9997 515.966 107.5 516H408.5C437 515.966 464.324 504.629 484.476 484.476C504.629 464.324 515.966 437 516 408.5V301H279.5V322.5Z" fill="white"/>
</g>
<defs>
<clipPath id="clip0_192_17">
<rect width="516" height="516" fill="white"/>
</clipPath>
</defs>
</svg>
