<svg width="516" height="516" viewBox="0 0 516 516" fill="none" xmlns="http://www.w3.org/2000/svg">
<g clip-path="url(#clip0_12_503)">
<path d="M43 279.5V258C43 240.894 49.7955 224.488 61.8916 212.392C73.9877 200.296 90.3935 193.5 107.5 193.5H236.5V146.544C223.967 142.113 213.11 133.919 205.413 123.081C197.716 112.244 193.555 99.2927 193.5 86.0001C193.5 54.4811 232.48 20.3391 244.434 10.6211L258 -0.408447L271.566 10.6211C283.52 20.3391 322.5 54.4811 322.5 86.0001C322.445 99.2927 318.284 112.244 310.587 123.081C302.89 133.919 292.033 142.113 279.5 146.544V193.5H408.5C425.606 193.5 442.012 200.296 454.108 212.392C466.204 224.488 473 240.894 473 258V279.5C473 286.875 458.337 301 435.375 301C411.962 301 397.75 286.079 397.75 279.5H354.75C354.75 286.875 340.087 301 317.125 301C293.712 301 279.5 286.079 279.5 279.5H236.5C236.5 286.875 221.837 301 198.875 301C175.462 301 161.25 286.079 161.25 279.5H118.25C118.25 286.875 103.587 301 80.625 301C57.2115 301 43 286.079 43 279.5ZM0 473V516H516V473H0ZM473 335.938C461.151 341.199 448.339 343.944 435.375 344C413.725 344.164 392.738 336.533 376.25 322.5C359.666 336.325 338.774 343.922 317.183 343.981C295.593 344.04 274.659 336.556 258 322.823C241.341 336.556 220.407 344.04 198.817 343.981C177.226 343.922 156.334 336.325 139.75 322.5C123.262 336.533 102.275 344.164 80.625 344C67.6607 343.944 54.849 341.199 43 335.938V430H473V335.938Z" fill="#414AF2"/>
</g>
<defs>
<clipPath id="clip0_12_503">
<rect width="516" height="516" fill="white"/>
</clipPath>
</defs>
</svg>
