<svg width="516" height="516" viewBox="0 0 516 516" fill="none" xmlns="http://www.w3.org/2000/svg">
<g clip-path="url(#clip0_0_68)">
<path d="M91.375 4.15904e-05H424.625C436.628 -0.0115611 448.515 2.40461 459.606 7.11026C470.697 11.8159 480.775 18.7187 489.262 27.4235C497.749 36.1283 504.479 46.4643 509.067 57.84C513.656 69.2156 516.011 81.4075 516 93.718V422.282C516.011 434.593 513.656 446.784 509.067 458.16C504.479 469.536 497.749 479.872 489.262 488.576C480.775 497.281 470.697 504.184 459.606 508.89C448.515 513.595 436.628 516.012 424.625 516H91.375C79.3723 516.012 67.4852 513.595 56.394 508.89C45.3027 504.184 35.2251 497.281 26.7379 488.576C18.2507 479.872 11.5205 469.536 6.93251 458.16C2.34449 446.784 -0.0112721 434.593 4.05506e-05 422.282V93.718C-0.0112721 81.4075 2.34449 69.2156 6.93251 57.84C11.5205 46.4643 18.2507 36.1283 26.7379 27.4235C35.2251 18.7187 45.3027 11.8159 56.394 7.11026C67.4852 2.40461 79.3723 -0.0115611 91.375 4.15904e-05V4.15904e-05Z" fill="#F0F0F0"/>
<path d="M258.033 457.927L141.966 425.705L116.1 135.599H400.313L374.421 425.661L258.033 457.927V457.927Z" fill="#264DE4"/>
<path d="M352.254 407.19L374.379 159.319H258.206V433.263L352.254 407.19V407.19Z" fill="#2965F1"/>
<path d="M175.396 266.915L178.584 302.496H258.206V266.915H175.396ZM168.988 194.9L172.222 230.481H258.206V194.9H168.988V194.9ZM258.206 359.322L258.05 359.363L218.425 348.663L215.891 320.287H180.174L185.158 376.153L258.043 396.385L258.206 396.34V359.322Z" fill="#EBEBEB"/>
<path d="M182.988 56.76H226.081V74.7814H201.01V92.8027H226.083V110.823H182.988V56.76ZM234.7 56.76H277.794V72.4306H252.722V75.5645H277.794V111.607H234.701V95.1512H259.774V92.0173H234.699V56.76H234.7ZM286.414 56.76H329.507V72.4306H304.435V75.5645H329.507V111.607H286.414V95.1512H311.486V92.0173H286.415V56.76H286.414Z" fill="black"/>
<path d="M340.79 266.915L347.212 194.9H258.084V230.481H308.22L304.982 266.915H258.084V302.496H301.897L297.766 348.641L258.083 359.352V396.368L331.025 376.153L331.56 370.142L339.922 276.47L340.79 266.915V266.915Z" fill="white"/>
</g>
<defs>
<clipPath id="clip0_0_68">
<rect width="516" height="516" fill="white"/>
</clipPath>
</defs>
</svg>
