<svg width="516" height="516" viewBox="0 0 516 516" fill="none" xmlns="http://www.w3.org/2000/svg">
<path d="M515.011 138.969L334.024 294.055C313.844 311.304 286.503 320.99 258 320.99C229.497 320.99 202.156 311.304 181.976 294.055L0.989 138.969C0.688 141.879 0 144.514 0 147.406V368.485C0.0341389 392.906 11.371 416.319 31.5237 433.588C51.6765 450.857 78.9997 460.571 107.5 460.601H408.5C437 460.571 464.324 450.857 484.476 433.588C504.629 416.319 515.966 392.906 516 368.485V147.406C516 144.514 515.312 141.879 515.011 138.969Z" fill="#414AF2"/>
<path d="M303.623 268.005L500.004 99.7087C490.491 86.192 477.073 75.0039 461.045 67.2237C445.018 59.4434 426.921 55.3335 408.5 55.2904H107.5C89.0792 55.3335 70.9822 59.4434 54.9545 67.2237C38.9268 75.0039 25.5093 86.192 15.996 99.7087L212.377 268.005C224.494 278.346 240.899 284.152 258 284.152C275.101 284.152 291.506 278.346 303.623 268.005Z" fill="#414AF2"/>
</svg>
