<svg width="516" height="516" viewBox="0 0 516 516" fill="none" xmlns="http://www.w3.org/2000/svg">
<g clip-path="url(#clip0_7_239)">
<path d="M258 0C115.512 0 0 115.512 0 258C0 378.992 83.303 480.52 195.678 508.404V336.845H142.478V258H195.678V224.027C195.678 136.214 235.42 95.5116 321.633 95.5116C337.98 95.5116 366.185 98.7211 377.722 101.92V173.386C371.634 172.746 361.056 172.427 347.918 172.427C305.616 172.427 289.27 188.454 289.27 230.115V258H373.543L359.064 336.845H289.27V514.111C417.021 498.683 516.01 389.91 516.01 258C516 115.512 400.488 0 258 0Z" fill="#414AF2"/>
</g>
<defs>
<clipPath id="clip0_7_239">
<rect width="516" height="516" fill="white"/>
</clipPath>
</defs>
</svg>
