<svg width="516" height="516" viewBox="0 0 516 516" fill="none" xmlns="http://www.w3.org/2000/svg">
<path d="M91.375 4.15904e-05H424.625C436.628 -0.0115611 448.515 2.40461 459.606 7.11026C470.697 11.8159 480.775 18.7187 489.262 27.4235C497.749 36.1283 504.48 46.4643 509.068 57.84C513.656 69.2156 516.011 81.4075 516 93.718V422.282C516.011 434.593 513.656 446.784 509.068 458.16C504.48 469.536 497.749 479.872 489.262 488.576C480.775 497.281 470.697 504.184 459.606 508.89C448.515 513.595 436.628 516.012 424.625 516H91.375C79.3723 516.012 67.4852 513.595 56.394 508.89C45.3027 504.184 35.2251 497.281 26.7379 488.576C18.2507 479.872 11.5205 469.536 6.93251 458.16C2.34449 446.784 -0.0112721 434.593 4.05506e-05 422.282V93.718C-0.0112721 81.4075 2.34449 69.2156 6.93251 57.84C11.5205 46.4643 18.2507 36.1283 26.7379 27.4235C35.2251 18.7187 45.3027 11.8159 56.394 7.11026C67.4852 2.40461 79.3723 -0.0115611 91.375 4.15904e-05V4.15904e-05Z" fill="#000B1D"/>
<path d="M208.551 415.379C238.236 415.379 262.301 391.315 262.301 361.629V307.879H208.551C178.865 307.879 154.801 331.944 154.801 361.629C154.801 391.315 178.865 415.379 208.551 415.379Z" fill="#0ACF83"/>
<path d="M154.801 254.129C154.801 224.444 178.865 200.379 208.551 200.379H262.301V307.879H208.551C178.865 307.879 154.801 283.815 154.801 254.129Z" fill="#A259FF"/>
<path d="M154.801 146.629C154.801 116.944 178.865 92.8794 208.551 92.8794H262.301V200.379H208.551C178.865 200.379 154.801 176.315 154.801 146.629Z" fill="#F24E1E"/>
<path d="M262.301 92.8794H316.051C345.736 92.8794 369.801 116.944 369.801 146.629C369.801 176.315 345.736 200.379 316.051 200.379H262.301V92.8794Z" fill="#FF7262"/>
<path d="M369.801 254.129C369.801 283.815 345.736 307.879 316.051 307.879C286.366 307.879 262.301 283.815 262.301 254.129C262.301 224.444 286.366 200.379 316.051 200.379C345.736 200.379 369.801 224.444 369.801 254.129Z" fill="#1ABCFE"/>
</svg>
