<svg width="516" height="516" viewBox="0 0 516 516" fill="none" xmlns="http://www.w3.org/2000/svg">
<path d="M91.375 4.15904e-05H424.625C436.628 -0.0115611 448.515 2.40461 459.606 7.11026C470.697 11.8159 480.775 18.7187 489.262 27.4235C497.749 36.1283 504.479 46.4643 509.067 57.84C513.656 69.2156 516.011 81.4075 516 93.718V422.282C516.011 434.593 513.656 446.784 509.067 458.16C504.479 469.536 497.749 479.872 489.262 488.576C480.775 497.281 470.697 504.184 459.606 508.89C448.515 513.595 436.628 516.012 424.625 516H91.375C79.3723 516.012 67.4852 513.595 56.394 508.89C45.3027 504.184 35.2251 497.281 26.7379 488.576C18.2507 479.872 11.5205 469.536 6.93251 458.16C2.34449 446.784 -0.0112721 434.593 4.05506e-05 422.282V93.718C-0.0112721 81.4075 2.34449 69.2156 6.93251 57.84C11.5205 46.4643 18.2507 36.1283 26.7379 27.4235C35.2251 18.7187 45.3027 11.8159 56.394 7.11026C67.4852 2.40461 79.3723 -0.0115611 91.375 4.15904e-05V4.15904e-05Z" fill="#F0F0F0"/>
<path d="M319.389 445.66C426.324 409.862 486.345 283.407 429.817 174.029C361.803 42.4255 175.617 33.8616 95.4865 158.651C25.2472 268.036 80.9134 409.767 197.179 445.642C206.838 447.416 210.367 441.441 210.367 436.345C210.367 431.748 210.195 416.51 210.092 400.395C156.373 412.068 145.027 377.616 145.027 377.616C136.229 355.302 123.574 349.362 123.574 349.362C106.012 337.378 124.9 337.62 124.9 337.62C144.287 338.962 154.514 357.523 154.514 357.523C171.749 387.051 199.744 378.511 210.729 373.553C212.485 361.104 217.478 352.564 222.988 347.761C180.116 342.888 135.006 326.308 135.006 252.289C135.006 231.181 142.548 213.98 154.875 200.447C152.913 195.54 146.249 175.895 156.786 149.311C156.786 149.311 172.988 144.129 209.903 169.111C241.445 160.621 273.652 160.332 306.596 169.146C343.442 144.129 359.678 149.346 359.678 149.346C370.232 175.947 363.586 195.575 361.606 200.465C373.986 213.98 381.458 231.198 381.458 252.307C381.458 326.514 336.279 342.854 293.253 347.64C300.209 353.632 306.355 365.374 306.355 383.384C306.355 409.21 306.097 430.026 306.097 436.397C306.097 441.545 309.609 447.554 319.389 445.66Z" fill="black"/>
</svg>
