<svg width="516" height="516" viewBox="0 0 516 516" fill="none" xmlns="http://www.w3.org/2000/svg">
<path fill-rule="evenodd" clip-rule="evenodd" d="M258.213 0C115.428 0 0 116.279 0 260.132C0 375.121 73.9588 472.458 176.559 506.908C189.387 509.498 194.086 501.311 194.086 494.424C194.086 488.393 193.663 467.722 193.663 446.184C121.834 461.691 106.876 415.174 106.876 415.174C95.333 385.026 78.2294 377.278 78.2294 377.278C54.7199 361.342 79.9418 361.342 79.9418 361.342C106.02 363.065 119.704 388.044 119.704 388.044C142.785 427.664 179.979 416.469 194.942 409.577C197.077 392.78 203.922 381.152 211.189 374.693C153.901 368.663 93.6258 346.268 93.6258 246.348C93.6258 217.923 103.879 194.667 120.127 176.58C117.563 170.122 108.583 143.414 122.696 107.669C122.696 107.669 144.498 100.777 193.657 134.371C214.704 128.677 236.41 125.78 258.213 125.756C280.016 125.756 302.241 128.774 322.764 134.371C371.929 100.777 393.731 107.669 393.731 107.669C407.843 143.414 398.858 170.122 396.295 176.58C412.97 194.667 422.801 217.923 422.801 246.348C422.801 346.268 362.526 368.229 304.81 374.693C314.218 382.875 322.336 398.377 322.336 422.928C322.336 457.812 321.913 485.809 321.913 494.419C321.913 501.311 326.617 509.498 339.44 506.913C442.04 472.452 515.999 375.121 515.999 260.132C516.422 116.279 400.571 0 258.213 0Z" fill="#414AF2"/>
</svg>
