<svg width="516" height="516" viewBox="0 0 516 516" fill="none" xmlns="http://www.w3.org/2000/svg">
<g clip-path="url(#clip0_17_539)">
<path d="M516 182.32V430C516 435.702 513.735 441.171 509.703 445.203C505.671 449.235 500.202 451.5 494.5 451.5C488.798 451.5 483.329 449.235 479.297 445.203C475.265 441.171 473 435.702 473 430V252.668L313.9 328.692C297.125 338.594 277.974 343.751 258.495 343.613C238.066 343.645 218.009 338.155 200.445 327.724L41.7745 252.195C29.3019 245.488 18.8514 235.565 11.5072 223.457C4.16308 211.349 0.192883 197.496 0.00861225 183.335C-0.175658 169.175 3.43271 155.224 10.4593 142.928C17.4859 130.633 27.6747 120.442 39.9685 113.412C40.549 113.068 41.1725 112.746 41.7745 112.445L202.1 35.948C219.409 26.0077 239.053 20.8577 259.013 21.0278C278.972 21.1978 298.526 26.6817 315.663 36.9155L474.225 112.445C486.737 119.368 497.193 129.479 504.53 141.752C511.868 154.025 515.825 168.022 516 182.32ZM258.473 386.57C230.965 386.631 203.93 379.422 180.105 365.672L86 320.758V378.808C86.0128 401.76 93.3608 424.107 106.972 442.588C120.583 461.068 139.744 474.715 161.659 481.535C192.97 490.525 225.426 494.893 258 494.5C290.578 494.865 323.035 490.469 354.342 481.449C376.256 474.629 395.417 460.982 409.028 442.502C422.639 424.021 429.987 401.674 430 378.722V320.866L334.132 366.661C311.119 379.882 285.013 386.766 258.473 386.613V386.57Z" fill="white"/>
</g>
<defs>
<clipPath id="clip0_17_539">
<rect width="516" height="516" fill="white"/>
</clipPath>
</defs>
</svg>
