<svg width="516" height="516" viewBox="0 0 516 516" fill="none" xmlns="http://www.w3.org/2000/svg">
<g clip-path="url(#clip0_0_60)">
<path d="M91.375 4.15904e-05H424.625C436.628 -0.0115611 448.515 2.40461 459.606 7.11026C470.697 11.8159 480.775 18.7187 489.262 27.4235C497.749 36.1283 504.479 46.4643 509.067 57.84C513.656 69.2156 516.011 81.4075 516 93.718V422.282C516.011 434.593 513.656 446.784 509.067 458.16C504.479 469.536 497.749 479.872 489.262 488.576C480.775 497.281 470.697 504.184 459.606 508.89C448.515 513.595 436.628 516.012 424.625 516H91.375C79.3723 516.012 67.4852 513.595 56.394 508.89C45.3027 504.184 35.2251 497.281 26.7379 488.576C18.2507 479.872 11.5205 469.536 6.93251 458.16C2.34449 446.784 -0.0112721 434.593 4.05506e-05 422.282V93.718C-0.0112721 81.4075 2.34449 69.2156 6.93251 57.84C11.5205 46.4643 18.2507 36.1283 26.7379 27.4235C35.2251 18.7187 45.3027 11.8159 56.394 7.11026C67.4852 2.40461 79.3723 -0.0115611 91.375 4.15904e-05V4.15904e-05Z" fill="#F0F0F0"/>
<path d="M400.11 135.601L374.217 425.67L257.826 457.936L141.756 425.714L115.89 135.601H400.11Z" fill="#E44D26"/>
<path d="M258 433.272L352.05 407.199L374.176 159.321H258V433.272Z" fill="#F16529"/>
<path d="M207.665 230.485H258V194.904H168.779L169.63 204.449L178.376 302.502H258V266.921H210.917L207.665 230.485V230.485ZM215.684 320.293H179.966L184.95 376.161L257.836 396.393L258 396.349V359.329L257.844 359.37L218.217 348.67L215.684 320.293V320.293Z" fill="#EBEBEB"/>
<path d="M142.333 56.76H160.415V74.6247H176.956V56.76H195.039V110.859H176.958V92.7434H160.416V110.859H142.334V56.76H142.333ZM218.817 74.7005H202.901V56.76H252.828V74.7005H236.902V110.859H218.82V74.7005H218.819H218.817ZM260.752 56.76H279.606L291.204 75.7689L302.79 56.76H321.652V110.859H303.644V84.0445L291.204 103.28H290.892L278.444 84.0445V110.859H260.752V56.76ZM330.651 56.76H348.738V92.9774H374.167V110.859H330.65V56.76H330.651Z" fill="black"/>
<path d="M257.877 302.502H301.692L297.561 348.648L257.876 359.359V396.376L330.82 376.161L331.355 370.149L339.717 276.475L340.585 266.921H257.877V302.502ZM257.877 230.398V230.485H343.823L344.536 222.488L346.158 204.449L347.008 194.904H257.877V230.399V230.398Z" fill="white"/>
</g>
<defs>
<clipPath id="clip0_0_60">
<rect width="516" height="516" fill="white"/>
</clipPath>
</defs>
</svg>
