<svg width="516" height="516" viewBox="0 0 516 516" fill="none" xmlns="http://www.w3.org/2000/svg">
<g clip-path="url(#clip0_7_237)">
<path d="M258 46.4602C326.934 46.4602 335.098 46.7625 362.208 47.9719C387.403 49.0805 401.009 53.3133 410.079 56.8406C422.072 61.4766 430.739 67.1203 439.709 76.0899C448.779 85.1602 454.322 93.7266 458.958 105.72C462.485 114.79 466.718 128.496 467.827 153.591C469.036 180.802 469.338 188.965 469.338 257.798C469.338 326.733 469.036 334.896 467.827 362.006C466.718 387.202 462.485 400.807 458.958 409.877C454.322 421.87 448.678 430.538 439.709 439.507C430.638 448.577 422.072 454.12 410.079 458.756C401.009 462.284 387.302 466.516 362.208 467.625C334.997 468.834 326.834 469.137 258 469.137C189.066 469.137 180.902 468.834 153.792 467.625C128.597 466.516 114.991 462.284 105.921 458.756C93.9281 454.12 85.2609 448.477 76.2914 439.507C67.2211 430.437 61.6781 421.87 57.0422 409.877C53.5148 400.807 49.282 387.101 48.1734 362.006C46.9641 334.795 46.6617 326.632 46.6617 257.798C46.6617 188.864 46.9641 180.701 48.1734 153.591C49.282 128.395 53.5148 114.79 57.0422 105.72C61.6781 93.7266 67.3219 85.0594 76.2914 76.0899C85.3617 67.0195 93.9281 61.4766 105.921 56.8406C114.991 53.3133 128.698 49.0805 153.792 47.9719C180.902 46.7625 189.066 46.4602 258 46.4602ZM258 0C187.957 0 179.189 0.302344 151.676 1.51172C124.263 2.72109 105.417 7.15547 89.0906 13.5047C72.0586 20.1563 57.6469 28.9242 43.3359 43.3359C28.9242 57.6469 20.1563 72.0586 13.5047 88.9899C7.15547 105.417 2.72109 124.163 1.51172 151.575C0.302344 179.189 0 187.957 0 258C0 328.043 0.302344 336.811 1.51172 364.324C2.72109 391.737 7.15547 410.583 13.5047 426.909C20.1563 443.941 28.9242 458.353 43.3359 472.664C57.6469 486.975 72.0586 495.844 88.9899 502.395C105.417 508.744 124.163 513.178 151.575 514.388C179.088 515.597 187.856 515.899 257.899 515.899C327.942 515.899 336.71 515.597 364.223 514.388C391.636 513.178 410.482 508.744 426.809 502.395C443.74 495.844 458.152 486.975 472.463 472.664C486.773 458.353 495.642 443.941 502.193 427.01C508.542 410.583 512.977 391.838 514.186 364.425C515.395 336.912 515.698 328.144 515.698 258.101C515.698 188.058 515.395 179.29 514.186 151.777C512.977 124.364 508.542 105.518 502.193 89.1914C495.844 72.0586 487.076 57.6469 472.664 43.3359C458.353 29.025 443.941 20.1563 427.01 13.6055C410.583 7.25625 391.838 2.82188 364.425 1.6125C336.811 0.302344 328.043 0 258 0Z" fill="#414AF2"/>
<path d="M258 125.473C184.833 125.473 125.473 184.833 125.473 258C125.473 331.167 184.833 390.527 258 390.527C331.167 390.527 390.527 331.167 390.527 258C390.527 184.833 331.167 125.473 258 125.473ZM258 343.966C210.532 343.966 172.034 305.468 172.034 258C172.034 210.532 210.532 172.034 258 172.034C305.468 172.034 343.966 210.532 343.966 258C343.966 305.468 305.468 343.966 258 343.966Z" fill="#414AF2"/>
<path d="M426.708 120.231C426.708 137.364 412.8 151.171 395.768 151.171C378.635 151.171 364.828 137.263 364.828 120.231C364.828 103.098 378.736 89.2912 395.768 89.2912C412.8 89.2912 426.708 103.199 426.708 120.231Z" fill="#414AF2"/>
</g>
<defs>
<clipPath id="clip0_7_237">
<rect width="516" height="516" fill="white"/>
</clipPath>
</defs>
</svg>
