<svg width="516" height="516" viewBox="0 0 516 516" fill="none" xmlns="http://www.w3.org/2000/svg">
<g clip-path="url(#clip0_0_164)">
<path d="M91.375 4.15904e-05H424.625C436.628 -0.0115611 448.515 2.40461 459.606 7.11026C470.697 11.8159 480.775 18.7187 489.262 27.4235C497.749 36.1283 504.479 46.4643 509.067 57.84C513.656 69.2156 516.011 81.4075 516 93.718V422.282C516.011 434.593 513.656 446.784 509.067 458.16C504.479 469.536 497.749 479.872 489.262 488.576C480.775 497.281 470.697 504.184 459.606 508.89C448.515 513.595 436.628 516.012 424.625 516H91.375C79.3723 516.012 67.4852 513.595 56.394 508.89C45.3027 504.184 35.2251 497.281 26.7379 488.576C18.2507 479.872 11.5205 469.536 6.93251 458.16C2.34449 446.784 -0.0112721 434.593 4.05506e-05 422.282V93.718C-0.0112721 81.4075 2.34449 69.2156 6.93251 57.84C11.5205 46.4643 18.2507 36.1283 26.7379 27.4235C35.2251 18.7187 45.3027 11.8159 56.394 7.11026C67.4852 2.40461 79.3723 -0.0115611 91.375 4.15904e-05V4.15904e-05Z" fill="#F7DF1E"/>
<path d="M347.497 403.75C357.891 420.72 371.414 433.194 395.33 433.194C415.421 433.194 428.255 423.153 428.255 409.278C428.255 392.651 415.069 386.762 392.954 377.09L380.833 371.889C345.843 356.982 322.598 338.308 322.598 298.829C322.598 262.464 350.307 234.78 393.61 234.78C424.439 234.78 446.602 245.51 462.574 273.603L424.815 297.847C416.502 282.94 407.534 277.067 393.61 277.067C379.407 277.067 370.406 286.077 370.406 297.847C370.406 312.393 379.416 318.282 400.219 327.291L412.341 332.484C453.539 350.151 476.8 368.162 476.8 408.656C476.8 452.311 442.507 476.227 396.452 476.227C351.421 476.227 322.328 454.768 308.093 426.642L347.497 403.75ZM176.21 407.951C183.827 421.466 190.756 432.891 207.416 432.891C223.346 432.891 233.396 426.658 233.396 402.423V237.548H281.883V403.078C281.883 453.286 252.447 476.137 209.48 476.137C170.657 476.137 148.174 456.046 136.74 431.847L176.21 407.951Z" fill="black"/>
</g>
<defs>
<clipPath id="clip0_0_164">
<rect width="516" height="516" fill="white"/>
</clipPath>
</defs>
</svg>
