<svg width="516" height="516" viewBox="0 0 516 516" fill="none" xmlns="http://www.w3.org/2000/svg">
<g clip-path="url(#clip0_0_167)">
<path d="M91.375 4.15904e-05H424.625C436.628 -0.0115611 448.515 2.40461 459.606 7.11026C470.697 11.8159 480.775 18.7187 489.262 27.4235C497.749 36.1283 504.48 46.4643 509.068 57.84C513.656 69.2156 516.011 81.4075 516 93.718V422.282C516.011 434.592 513.656 446.784 509.068 458.16C504.48 469.536 497.749 479.872 489.262 488.576C480.775 497.281 470.697 504.184 459.606 508.89C448.515 513.595 436.628 516.012 424.625 516H91.375C79.3723 516.012 67.4852 513.595 56.394 508.89C45.3027 504.184 35.2251 497.281 26.7379 488.576C18.2507 479.872 11.5205 469.536 6.93251 458.16C2.34449 446.784 -0.0112721 434.592 4.05506e-05 422.282V93.718C-0.0112721 81.4075 2.34449 69.2156 6.93251 57.84C11.5205 46.4643 18.2507 36.1283 26.7379 27.4235C35.2251 18.7187 45.3027 11.8159 56.394 7.11026C67.4852 2.40461 79.3723 -0.0115611 91.375 4.15904e-05V4.15904e-05Z" fill="#F0F0F0"/>
<path d="M359.581 379.448H358.024V378.577H362.215V379.448H360.669V383.794H359.581V379.448ZM367.94 379.675H367.916L366.373 383.795H365.667L364.135 379.675H364.116V383.795H363.09V378.578H364.599L366.02 382.272L367.437 378.578H368.94V383.795H367.939V379.675H367.94Z" fill="#E76F00"/>
<path d="M220.215 272.782C220.215 272.782 209.383 279.081 227.923 281.212C250.384 283.775 261.863 283.407 286.615 278.722C286.615 278.722 293.123 282.803 302.211 286.337C246.724 310.118 176.632 284.96 220.215 272.782Z" fill="#5382A1"/>
<path d="M213.434 241.749C213.434 241.749 201.286 250.742 219.839 252.661C243.833 255.137 262.781 255.339 295.568 249.025C295.568 249.025 300.103 253.623 307.234 256.137C240.147 275.755 165.423 257.684 213.434 241.749Z" fill="#5382A1"/>
<path d="M270.594 189.108C284.266 204.849 267.002 219.014 267.002 219.014C267.002 219.014 301.717 201.092 285.774 178.651C270.883 157.722 259.464 147.324 321.283 111.472C321.283 111.472 224.248 135.706 270.594 189.108Z" fill="#E76F00"/>
<path d="M343.98 295.736C343.98 295.736 351.996 302.34 335.153 307.45C303.125 317.152 201.849 320.082 173.715 307.836C163.601 303.436 182.567 297.331 188.533 296.05C194.754 294.7 198.31 294.952 198.31 294.952C187.063 287.029 125.613 310.509 167.096 317.234C280.228 335.581 373.325 308.972 343.98 295.736Z" fill="#5382A1"/>
<path d="M225.423 209.596C225.423 209.596 173.908 221.832 207.18 226.275C221.229 228.156 249.235 227.731 275.321 225.545C296.641 223.747 318.048 219.923 318.048 219.923C318.048 219.923 310.531 223.142 305.092 226.856C252.779 240.614 151.72 234.214 180.813 220.141C205.418 208.247 225.423 209.596 225.423 209.596Z" fill="#5382A1"/>
<path d="M317.836 261.251C371.014 233.618 346.427 207.062 329.265 210.64C325.058 211.515 323.183 212.274 323.183 212.274C323.183 212.274 324.744 209.828 327.727 208.769C361.678 196.832 387.789 243.973 316.767 262.644C316.767 262.645 317.59 261.909 317.836 261.251Z" fill="#5382A1"/>
<path d="M285.774 53.5794C285.774 53.5794 315.225 83.0404 257.841 128.343C211.825 164.684 247.348 185.404 257.822 209.078C230.961 184.843 211.249 163.51 224.474 143.654C243.884 114.508 297.657 100.376 285.774 53.5794Z" fill="#E76F00"/>
<path d="M230.649 336.132C281.694 339.399 360.079 334.319 361.935 310.166C361.935 310.166 358.367 319.322 319.749 326.594C276.182 334.793 222.447 333.835 190.576 328.581C190.577 328.58 197.101 333.981 230.649 336.132Z" fill="#5382A1"/>
<path d="M222.283 428.421C217.468 432.598 212.382 434.943 207.818 434.943C201.304 434.943 197.784 431.036 197.784 424.771C197.784 417.994 201.555 413.039 216.684 413.039H222.283V428.421H222.283ZM235.57 443.413V397.008C235.57 385.153 228.809 377.331 212.508 377.331C202.991 377.331 194.654 379.681 187.879 382.678L189.834 390.892C195.169 388.934 202.075 387.111 208.853 387.111C218.243 387.111 222.283 390.892 222.283 398.709V404.574H217.596C194.78 404.574 184.488 413.431 184.488 426.725C184.488 438.197 191.271 444.718 204.041 444.718C212.25 444.718 218.378 441.329 224.106 436.37L225.146 443.414H235.57V443.413Z" fill="#E76F00"/>
<path d="M279.914 443.413H263.342L243.398 378.506H257.87L270.246 418.385L272.997 430.379C279.257 413.038 283.685 395.445 285.9 378.506H299.978C296.206 399.879 289.419 423.339 279.914 443.413Z" fill="#E76F00"/>
<path d="M343.487 428.421C338.662 432.598 333.567 434.943 329.003 434.943C322.5 434.943 318.972 431.036 318.972 424.771C318.972 417.994 322.752 413.039 337.879 413.039H343.487V428.421ZM356.772 443.413V397.008C356.772 385.153 349.994 377.331 333.712 377.331C324.188 377.331 315.849 379.681 309.076 382.678L311.029 390.892C316.366 388.934 323.284 387.111 330.057 387.111C339.441 387.111 343.487 390.892 343.487 398.709V404.574H338.792C315.969 404.574 305.682 413.431 305.682 426.725C305.682 438.197 312.459 444.718 325.227 444.718C333.44 444.718 339.566 441.329 345.304 436.37L346.348 443.414H356.772V443.413Z" fill="#E76F00"/>
<path d="M169.919 454.435C166.131 459.966 160.014 464.341 153.316 466.816L146.756 459.096C151.854 456.481 156.226 452.256 158.257 448.32C160.014 444.821 160.742 440.31 160.742 429.524V355.422H174.858V428.508C174.858 442.929 173.705 448.754 169.919 454.435Z" fill="#E76F00"/>
</g>
<defs>
<clipPath id="clip0_0_167">
<rect width="516" height="516" fill="white"/>
</clipPath>
</defs>
</svg>
