<svg width="516" height="516" viewBox="0 0 516 516" fill="none" xmlns="http://www.w3.org/2000/svg">
<g clip-path="url(#clip0_7_240)">
<path d="M477.804 0H38.0953C17.032 0 0 16.6289 0 37.1883V478.711C0 499.27 17.032 516 38.0953 516H477.804C498.867 516 516 499.27 516 478.812V37.1883C516 16.6289 498.867 0 477.804 0ZM153.087 439.709H76.493V193.399H153.087V439.709ZM114.79 159.839C90.1992 159.839 70.3453 139.985 70.3453 115.495C70.3453 91.0055 90.1992 71.1516 114.79 71.1516C139.28 71.1516 159.134 91.0055 159.134 115.495C159.134 139.884 139.28 159.839 114.79 159.839ZM439.709 439.709H363.216V319.98C363.216 291.459 362.712 254.674 323.407 254.674C283.598 254.674 277.552 285.816 277.552 317.965V439.709H201.159V193.399H274.528V227.06H275.536C285.715 207.71 310.709 187.252 347.897 187.252C425.398 187.252 439.709 238.247 439.709 304.561V439.709V439.709Z" fill="#414AF2"/>
</g>
<defs>
<clipPath id="clip0_7_240">
<rect width="516" height="516" fill="white"/>
</clipPath>
</defs>
</svg>
