<svg width="516" height="516" viewBox="0 0 516 516" fill="none" xmlns="http://www.w3.org/2000/svg">
<g clip-path="url(#clip0_12_506)">
<path d="M258 0.902954C201.11 0.965543 146.567 23.5914 106.338 63.8169C66.1081 104.042 43.4768 158.583 43.4085 215.473C43.4085 270.728 86.1935 357.201 170.581 472.484C180.627 486.247 193.781 497.443 208.971 505.162C224.162 512.881 240.961 516.904 258 516.904C275.039 516.904 291.838 512.881 307.029 505.162C322.219 497.443 335.373 486.247 345.419 472.484C429.807 357.201 472.592 270.728 472.592 215.473C472.523 158.583 449.892 104.042 409.662 63.8169C369.433 23.5914 314.89 0.965543 258 0.902954ZM258 301C240.991 301 224.364 295.956 210.221 286.506C196.078 277.057 185.055 263.625 178.546 247.911C172.037 232.196 170.334 214.905 173.652 198.222C176.971 181.54 185.162 166.216 197.189 154.189C209.216 142.161 224.54 133.971 241.222 130.652C257.905 127.334 275.196 129.037 290.911 135.546C306.625 142.055 320.057 153.078 329.506 167.221C338.956 181.364 344 197.991 344 215C344 237.809 334.939 259.683 318.811 275.811C302.683 291.939 280.809 301 258 301Z" fill="#414AF2"/>
</g>
<defs>
<clipPath id="clip0_12_506">
<rect width="516" height="516" fill="white"/>
</clipPath>
</defs>
</svg>
