<svg width="516" height="516" viewBox="0 0 516 516" fill="none" xmlns="http://www.w3.org/2000/svg">
<path d="M91.375 4.15904e-05H424.625C436.628 -0.0115611 448.515 2.40461 459.606 7.11026C470.697 11.8159 480.775 18.7187 489.262 27.4235C497.749 36.1283 504.479 46.4643 509.067 57.84C513.656 69.2156 516.011 81.4075 516 93.718V422.282C516.011 434.593 513.656 446.784 509.067 458.16C504.479 469.536 497.749 479.872 489.262 488.576C480.775 497.281 470.697 504.184 459.606 508.89C448.515 513.595 436.628 516.012 424.625 516H91.375C79.3723 516.012 67.4852 513.595 56.394 508.89C45.3027 504.184 35.2251 497.281 26.7379 488.576C18.2507 479.872 11.5205 469.536 6.93251 458.16C2.34449 446.784 -0.0112721 434.593 4.05506e-05 422.282V93.718C-0.0112721 81.4075 2.34449 69.2156 6.93251 57.84C11.5205 46.4643 18.2507 36.1283 26.7379 27.4235C35.2251 18.7187 45.3027 11.8159 56.394 7.11026C67.4852 2.40461 79.3723 -0.0115611 91.375 4.15904e-05V4.15904e-05Z" fill="#F0F0F0"/>
<g clip-path="url(#clip0_0_188)">
<path d="M256.71 52.7228L267.727 73.4144C270.203 77.2328 272.887 80.6126 276.047 83.7602C285.271 92.9837 294.03 102.646 301.899 112.992C320.565 137.502 333.155 164.721 342.147 194.158C347.539 212.141 350.467 230.588 350.686 249.241C351.589 305.008 332.472 352.893 293.926 392.689C287.631 398.985 280.897 404.815 273.673 410.001C269.855 410.001 268.049 407.073 266.475 404.377C263.547 399.436 261.754 393.799 260.851 388.187C259.496 381.441 258.606 374.694 259.045 367.728V364.58C258.735 363.909 255.368 54.3095 256.71 52.7228Z" fill="#599636"/>
<path d="M256.71 52.0391C256.259 51.1361 255.807 51.8198 255.356 52.2584C255.575 56.7734 254.001 60.7982 251.537 64.6424C248.828 68.4608 245.242 71.3891 241.643 74.5367C221.648 91.8485 205.91 112.759 193.307 136.147C176.537 167.623 167.894 201.357 165.443 236.87C164.32 249.68 169.493 294.882 173.531 307.923C184.547 342.547 204.336 371.559 229.968 396.74C236.264 402.803 242.997 408.427 249.963 413.832C251.989 413.832 252.208 412.026 252.672 410.685C253.56 407.814 254.237 404.882 254.698 401.913L259.213 368.192L256.71 52.0391Z" fill="#6CAC48"/>
<path d="M267.727 423.7C268.178 418.54 270.655 414.257 273.351 409.988C270.642 408.865 268.63 406.634 267.056 404.144C265.701 401.899 264.579 399.203 263.702 396.726C260.554 387.284 259.883 377.376 258.98 367.727V361.883C257.858 362.786 257.626 370.423 257.626 371.558C256.969 381.757 255.616 391.898 253.575 401.912C252.904 405.963 252.453 410 249.963 413.6C249.963 414.051 249.963 414.503 250.183 415.173C254.233 427.093 255.343 439.232 256.026 451.603V456.118C256.026 461.51 255.807 460.375 260.283 462.181C262.089 462.852 264.102 463.084 265.908 464.426C267.262 464.426 267.481 463.303 267.481 462.4L266.811 454.983V434.291C266.591 430.679 267.262 427.093 267.714 423.713L267.727 423.7Z" fill="#C2BFBF"/>
</g>
<defs>
<clipPath id="clip0_0_188">
<rect width="412.8" height="412.8" fill="white" transform="translate(51.6 51.6)"/>
</clipPath>
</defs>
</svg>
