<svg
    width="1416"
    height="296"
    viewBox="0 0 1416 296"
    class="AB_logo"
    fill="none"
    xmlns="http://www.w3.org/2000/svg"
>
    <path
        fill-rule="evenodd"
        clip-rule="evenodd"
        d="M174.122 0H305.312C333.243 0 389.782 37.7775 363.149 102.056C396.722 113.896 403.775 154.211 403.775 159.004V178.174C401.706 195.466 385.422 241.889 315.187 241.889H276.153C269.1 241.889 224.241 233.995 224.241 190.297H336.629C340.861 188.042 349.381 180.655 349.607 169.153C349.832 157.651 341.049 149.7 336.629 147.163H245.418C228.208 147.163 198.867 130.53 198.867 95.0076H299.105C304.466 94.5377 315.187 89.8766 315.187 74.9911C315.187 60.1057 304.466 55.2566 299.105 54.6928H221.52C197.539 54.6928 174.122 28.1922 174.122 0ZM0 292.008C1.71517 236.28 6.8146 156.169 98.199 30.2424C159.659 -36.9921 168.962 18.6729 181.215 91.9987C193.994 168.463 209.981 264.132 291.671 259.668L292.352 259.668L293.717 259.668L295.557 259.669C334.115 259.687 352.565 259.695 419.305 242.83C424.564 241.501 430.043 240.632 435.622 240.167H430V0H462.251V240.167H456.389C476.925 241.755 496.885 247.739 510.602 255.37C472.265 248.869 442.979 259.069 409.29 270.803C386.53 278.73 361.76 287.357 330.832 292.008C200.651 311.582 140.907 259.668 131.13 59.0491C105.917 80.1398 41.1642 151.575 0 292.008ZM1279.45 240.167H1247.2V0H1279.45V100.87H1383.75V0H1416V240.167H1383.75V131.062H1279.45V240.167ZM1195.42 30.1924V0H1132.63C1112.73 0 1096.61 4.80334 1084.26 14.41C1071.91 23.7879 1065.73 38.0836 1065.73 57.2969C1065.73 88.4042 1083.69 110.82 1119.6 124.544C1120.74 125.001 1122.34 125.573 1124.4 126.259C1131.95 129.004 1138.35 131.634 1143.61 134.15C1149.1 136.666 1154.36 139.64 1159.4 143.071C1164.66 146.502 1168.66 150.619 1171.4 155.422C1174.15 159.997 1175.52 165.372 1175.52 171.548C1175.52 184.128 1170.6 193.734 1160.77 200.368C1150.93 206.772 1138.24 209.974 1122.68 209.974H1070.19V240.167H1123.71C1129.66 240.167 1134.23 240.052 1137.44 239.824C1144.99 239.595 1152.65 238.223 1160.42 235.706C1168.43 232.962 1176.21 229.073 1183.75 224.041C1191.3 218.78 1197.48 211.69 1202.28 202.769C1207.09 193.62 1209.49 183.327 1209.49 171.891C1209.49 161.598 1208.11 152.563 1205.37 144.786C1202.63 136.781 1198.51 130.262 1193.02 125.23C1187.53 120.198 1182.04 116.195 1176.55 113.221C1171.06 110.019 1164.43 106.931 1156.65 103.958C1139.27 97.5534 1125.43 90.9203 1115.14 84.0584C1105.07 76.9677 1100.04 68.3903 1100.04 58.3262C1100.04 39.5703 1111.59 30.1924 1134.69 30.1924H1195.42ZM1034.92 240.167H898.365V57.2969C898.365 40.3709 903.74 26.7614 914.491 16.4686C921.81 9.60668 930.044 5.14643 939.193 3.08786C948.343 1.02929 959.55 0 972.817 0H1034.92V30.1924H968.356C943.196 30.1924 930.616 40.714 930.616 61.7572V100.87H1009.87V131.062H930.616V209.974H1034.92V240.167ZM724.137 240.167H860.689V209.974H756.388V131.062H835.643V100.87H756.388V61.7572C756.388 40.714 768.968 30.1924 794.128 30.1924H860.689V0H798.589C785.322 0 774.114 1.02929 764.965 3.08786C755.816 5.14643 747.582 9.60668 740.262 16.4686C729.512 26.7614 724.137 40.3709 724.137 57.2969V240.167ZM542.664 240.167H510.413V0H595.157C623.52 0 644.677 6.40445 658.63 19.2133C672.582 31.7935 679.559 51.693 679.559 78.9119V240.167H647.308V74.4517C647.308 58.898 642.504 47.6903 632.898 40.8284C623.52 33.7377 611.054 30.1924 595.5 30.1924H542.664V240.167Z"
        fill="#414AF2"
    />
</svg>