<svg width="516" height="516" viewBox="0 0 516 516" fill="none" xmlns="http://www.w3.org/2000/svg">
<path d="M91.375 4.15904e-05H424.625C436.628 -0.0115611 448.515 2.40461 459.606 7.11026C470.697 11.8159 480.775 18.7187 489.262 27.4235C497.749 36.1283 504.479 46.4643 509.067 57.84C513.656 69.2156 516.011 81.4075 516 93.718V422.282C516.011 434.593 513.656 446.784 509.067 458.16C504.479 469.536 497.749 479.872 489.262 488.576C480.775 497.281 470.697 504.184 459.606 508.89C448.515 513.595 436.628 516.012 424.625 516H91.375C79.3723 516.012 67.4852 513.595 56.394 508.89C45.3027 504.184 35.2251 497.281 26.7379 488.576C18.2507 479.872 11.5205 469.536 6.93251 458.16C2.34449 446.784 -0.0112721 434.593 4.05506e-05 422.282V93.718C-0.0112721 81.4075 2.34449 69.2156 6.93251 57.84C11.5205 46.4643 18.2507 36.1283 26.7379 27.4235C35.2251 18.7187 45.3027 11.8159 56.394 7.11026C67.4852 2.40461 79.3723 -0.0115611 91.375 4.15904e-05V4.15904e-05Z" fill="#F0F0F0"/>
<mask id="mask0_0_96" style="mask-type:luminance" maskUnits="userSpaceOnUse" x="41" y="285" width="180" height="88">
<path d="M41.5834 285.392H220.377V372.507H41.5834V285.392Z" fill="white"/>
</mask>
<g mask="url(#mask0_0_96)">
<path d="M41.8552 352.728H56.0974V296.485L78.1456 345.534C80.7465 351.447 84.3091 353.571 91.2921 353.571C98.275 353.571 101.699 351.47 104.303 345.534L126.354 296.485V352.749H140.598V296.578C140.598 291.098 138.402 288.448 133.885 287.08C123.068 283.7 115.808 286.623 112.523 293.93L90.8864 342.337L69.9305 293.909C66.7805 286.602 59.3861 283.679 48.5677 287.058C44.0468 288.428 41.8552 291.078 41.8552 296.556V352.728ZM152.436 306.934H166.674V337.933C166.541 339.619 167.213 343.572 175.016 343.692C178.997 343.756 205.738 343.692 205.987 343.692V306.78H220.256C220.32 306.78 220.241 357.11 220.244 357.325C220.321 369.738 204.847 372.435 197.717 372.644H152.747V363.057L197.797 363.055C206.962 362.084 205.881 357.529 205.881 355.993V352.255H175.611C161.527 352.128 152.561 345.977 152.448 338.903C152.437 338.27 152.752 307.237 152.44 306.931L152.436 306.934Z" fill="#00618A"/>
</g>
<path d="M231.235 352.732H272.182C276.975 352.732 281.633 351.729 285.333 349.991C291.497 347.161 294.509 343.324 294.509 338.3V327.89C294.509 323.778 291.085 319.944 284.377 317.387C280.816 316.013 276.434 315.285 272.189 315.285H254.932C249.183 315.285 246.442 313.549 245.759 309.715C245.621 309.258 245.621 308.869 245.621 308.434V301.951C245.621 301.586 245.621 301.218 245.759 300.762C246.442 297.84 247.949 297.016 253.016 296.539C253.427 296.539 253.974 296.446 254.388 296.446H295.06V286.95H255.072C249.319 286.95 246.308 287.315 243.567 288.137C235.065 290.787 231.366 295.01 231.366 302.317V310.628C231.366 317.023 238.628 322.502 250.812 323.78C252.184 323.871 253.552 323.962 254.919 323.962H269.711C270.26 323.962 270.809 323.962 271.218 324.054C275.735 324.42 277.656 325.242 279.024 326.885C279.868 327.729 280.121 328.532 280.121 329.418V337.73C280.121 338.735 279.438 340.016 278.068 341.109C276.835 342.207 274.781 342.935 272.041 343.12C271.492 343.12 271.083 343.21 270.536 343.21H231.232V352.708L231.235 352.732ZM383.354 336.201C383.354 345.975 390.611 351.455 405.265 352.551C406.633 352.657 408.001 352.716 409.372 352.732H446.486V343.234H409.098C400.745 343.234 397.594 341.133 397.594 336.109V286.969H383.352V336.197L383.354 336.201ZM303.594 336.695V302.834C303.594 294.231 309.632 289.013 321.571 287.365C322.845 287.183 324.127 287.093 325.414 287.091H352.449C353.782 287.093 355.109 287.183 356.43 287.365C368.369 289.013 374.406 294.228 374.406 302.834V336.695C374.406 343.675 371.841 347.41 365.931 349.845L379.96 362.515H363.423L352.073 352.265L340.647 352.989H325.414C322.808 352.989 320.063 352.622 317.043 351.798C307.966 349.328 303.597 344.568 303.597 336.695H303.594ZM318.968 335.851C318.968 336.31 319.105 336.766 319.243 337.316C320.087 341.253 323.771 343.449 329.374 343.449H342.314L330.43 332.715H346.966L357.31 342.077C359.22 341.059 360.476 339.5 360.898 337.501C361.036 337.044 361.036 336.586 361.036 336.127V303.659C361.036 303.295 361.036 302.815 360.898 302.378C360.054 298.719 356.368 296.613 350.881 296.613H329.412C323.08 296.613 318.985 299.358 318.985 303.659V335.876L318.968 335.851Z" fill="#E48E00"/>
<path d="M459.008 271.208C450.254 270.972 443.565 271.784 437.849 274.196C436.224 274.883 433.633 274.899 433.368 276.937C434.26 277.873 434.401 279.271 435.109 280.422C436.474 282.632 438.781 285.595 440.835 287.145C443.081 288.841 445.395 290.657 447.807 292.129C452.093 294.743 456.876 296.236 461.001 298.853C463.432 300.395 465.848 302.337 468.22 304.081C469.391 304.943 470.183 306.282 471.703 306.82V306.571C470.901 305.55 470.696 304.149 469.962 303.087L466.726 299.849C463.559 295.626 459.544 291.958 455.274 288.89C451.869 286.444 444.246 283.141 442.826 279.175L442.576 278.926C444.991 278.652 447.818 277.78 450.05 277.185C453.792 276.181 457.137 276.439 461.004 275.442L466.233 273.947V272.951C464.279 270.944 462.886 268.29 460.756 266.476C455.183 261.724 449.097 256.984 442.834 253.024C439.359 250.828 435.067 249.405 431.383 247.544C430.144 246.919 427.967 246.594 427.15 245.55C425.217 243.085 424.164 239.955 422.672 237.104C419.548 231.086 416.478 224.51 413.709 218.177C411.819 213.858 410.585 209.598 408.233 205.723C396.929 187.132 384.76 175.91 365.914 164.884C361.904 162.539 357.076 161.61 351.972 160.4L343.756 159.902C342.085 159.204 340.345 157.156 338.775 156.164C332.53 152.214 316.515 143.635 311.891 154.896C308.971 162.019 316.253 168.969 318.861 172.58C320.688 175.114 323.031 177.95 324.336 180.799C325.195 182.67 325.345 184.547 326.08 186.528C327.888 191.386 329.463 196.713 331.804 201.221C332.987 203.502 334.291 205.905 335.787 207.945C336.706 209.198 338.279 209.749 338.526 211.683C336.989 213.837 336.9 217.173 336.034 219.902C332.145 232.175 333.611 247.428 339.27 256.512C341.008 259.3 345.096 265.28 350.722 262.987C355.64 260.981 354.522 254.772 355.951 249.29C356.267 248.044 356.073 247.136 356.697 246.303V246.552L361.179 255.516C364.494 260.859 370.382 266.444 375.369 270.214C377.954 272.166 380.013 275.546 383.335 276.689V276.439H383.087C382.438 275.426 381.425 275.01 380.595 274.201C378.647 272.289 376.479 269.914 374.868 267.726C370.331 261.563 366.323 254.824 362.672 247.802C360.928 244.451 359.41 240.753 357.944 237.342C357.378 236.027 357.384 234.039 356.202 233.357C354.592 235.858 352.219 237.877 350.974 240.828C348.981 245.547 348.723 251.299 347.986 257.267C347.55 257.422 347.744 257.315 347.489 257.516C344.022 256.679 342.802 253.108 341.515 250.044C338.255 242.295 337.652 229.823 340.519 220.907C341.257 218.601 344.613 211.333 343.256 209.201C342.608 207.075 340.469 205.823 339.272 204.218C337.796 202.212 336.313 199.563 335.29 197.245C332.621 191.206 331.376 184.427 328.568 178.318C327.226 175.4 324.958 172.447 323.092 169.871C321.029 166.999 318.717 164.879 317.119 161.424C316.549 160.189 315.777 158.214 316.621 156.941C316.661 156.758 316.727 156.584 316.816 156.42C316.907 156.256 317.017 156.107 317.15 155.975C317.282 155.843 317.431 155.731 317.594 155.641C317.759 155.551 317.933 155.485 318.115 155.446C319.559 154.333 323.583 155.815 325.085 156.443C329.075 158.103 332.41 159.682 335.792 161.923C337.417 162.979 339.057 165.081 341.018 165.66H343.256C346.76 166.467 350.687 165.913 353.958 166.906C359.746 168.665 364.93 171.404 369.642 174.377C383.992 183.441 395.722 196.344 403.747 211.755C405.04 214.232 405.597 216.599 406.734 219.226C409.029 224.505 411.919 229.981 414.202 235.163C416.482 240.337 418.699 245.553 421.92 249.856C423.613 252.116 430.152 253.333 433.122 254.586C435.205 255.467 438.616 256.386 440.591 257.575C444.359 259.849 448.011 262.558 451.546 265.051C453.312 266.296 458.745 269.027 459.014 271.275L459.008 271.208Z" fill="#00618A"/>
<path fill-rule="evenodd" clip-rule="evenodd" d="M347.744 176.327C345.918 176.294 344.628 176.526 343.262 176.826V177.075H343.511C344.381 178.866 345.918 180.017 346.995 181.558L349.485 186.787L349.734 186.538C351.275 185.45 351.982 183.712 351.972 181.057C351.353 180.407 351.263 179.592 350.727 178.815C350.015 177.78 348.615 177.194 347.739 176.324L347.744 176.327Z" fill="#00618A"/>
<path fill-rule="evenodd" clip-rule="evenodd" d="M453.182 342.965C453.182 349.236 458.137 353.464 463.677 353.464C469.219 353.464 474.172 349.236 474.172 342.965C474.172 336.693 469.219 332.465 463.677 332.465C458.137 332.465 453.182 336.693 453.182 342.965ZM471.822 342.965C471.822 347.724 468.184 351.281 463.674 351.281C459.114 351.281 455.526 347.724 455.526 342.965C455.526 338.205 459.109 334.648 463.674 334.648C468.181 334.648 471.822 338.205 471.822 342.965ZM466.502 348.957H468.852L465.41 343.695C467.258 343.498 468.656 342.601 468.656 340.418C468.656 337.98 467.114 336.975 464.15 336.975H459.475V348.96H461.49V343.779H463.366L466.5 348.96L466.502 348.957ZM461.49 342.094V338.652H463.813C465.017 338.652 466.472 338.876 466.472 340.278C466.472 341.957 465.158 342.099 463.644 342.099H461.49V342.094Z" fill="#E48E00"/>
</svg>
