<svg width="516" height="516" viewBox="0 0 516 516" fill="none" xmlns="http://www.w3.org/2000/svg">
<path d="M91.375 4.15904e-05H424.625C436.628 -0.0115611 448.515 2.40461 459.606 7.11026C470.697 11.8159 480.775 18.7187 489.262 27.4235C497.749 36.1283 504.479 46.4643 509.067 57.84C513.656 69.2156 516.011 81.4075 516 93.718V422.282C516.011 434.593 513.656 446.784 509.067 458.16C504.479 469.536 497.749 479.872 489.262 488.576C480.775 497.281 470.697 504.184 459.606 508.89C448.515 513.595 436.628 516.012 424.625 516H91.375C79.3723 516.012 67.4852 513.595 56.394 508.89C45.3027 504.184 35.2251 497.281 26.7379 488.576C18.2507 479.872 11.5205 469.536 6.93251 458.16C2.34449 446.784 -0.0112721 434.593 4.05506e-05 422.282V93.718C-0.0112721 81.4075 2.34449 69.2156 6.93251 57.84C11.5205 46.4643 18.2507 36.1283 26.7379 27.4235C35.2251 18.7187 45.3027 11.8159 56.394 7.11026C67.4852 2.40461 79.3723 -0.0115611 91.375 4.15904e-05V4.15904e-05Z" fill="#F0F0F0"/>
<path d="M256.853 451.5C251.67 451.5 246.523 450.14 241.98 447.524L194.637 419.496C187.566 415.542 191.017 414.143 193.349 413.337C202.777 410.036 204.69 409.291 214.754 403.576C215.811 402.972 217.196 403.185 218.278 403.824L254.649 425.406C255.962 426.116 257.826 426.116 259.043 425.406L400.853 343.55C402.167 342.805 403.019 341.278 403.019 339.717V176.076C403.019 174.443 402.167 172.987 400.825 172.171L259.071 90.3861C257.758 89.6052 256.019 89.6052 254.705 90.3861L112.98 172.171C111.607 172.952 110.733 174.478 110.733 176.04V339.681C110.733 341.243 111.585 342.734 112.934 343.479L151.768 365.913C172.853 376.456 185.738 364.032 185.738 351.537V190.026C185.738 187.719 187.549 185.944 189.856 185.944H207.817C210.054 185.944 211.9 187.719 211.9 190.026V351.608C211.9 379.722 196.565 395.873 169.907 395.873C161.707 395.873 155.246 395.873 137.214 386.999L100.013 365.558C90.8195 360.234 85.14 350.295 85.14 339.681V176.04C85.14 165.391 90.8195 155.452 100.013 150.198L241.966 68.307C250.946 63.231 262.873 63.231 271.783 68.307L413.558 150.234C422.716 155.523 428.431 165.427 428.431 176.076V339.717C428.431 350.33 422.716 360.234 413.558 365.558L271.783 447.45C267.239 450.077 262.092 451.425 256.839 451.425" fill="#689F63"/>
<path d="M300.656 338.74C238.607 338.74 225.598 310.257 225.598 286.368C225.598 284.096 227.429 282.286 229.705 282.286H248.021C250.045 282.286 251.748 283.759 252.068 285.757C254.837 304.421 263.072 313.835 300.592 313.835C330.481 313.835 343.188 307.084 343.188 291.234C343.188 282.112 339.568 275.332 293.138 270.788C254.304 266.954 230.308 258.4 230.308 227.34C230.308 198.729 254.446 181.691 294.877 181.691C340.278 181.691 362.783 197.451 365.623 231.316C365.729 232.487 365.303 233.623 364.522 234.475C363.741 235.291 362.641 235.788 361.505 235.788H343.082C341.165 235.788 339.497 234.439 339.106 232.593C334.669 212.964 323.949 206.681 294.806 206.681C262.185 206.681 258.386 218.04 258.386 226.559C258.386 236.889 262.859 239.906 306.875 245.727C350.465 251.513 371.16 259.678 371.16 290.311C371.16 321.194 345.389 338.907 300.45 338.907L300.656 338.74Z" fill="#689F63"/>
</svg>
