<svg width="516" height="516" viewBox="0 0 516 516" fill="none" xmlns="http://www.w3.org/2000/svg">
<path d="M425.7 0H90.3C40.4287 0 0 40.4287 0 90.3V425.7C0 475.571 40.4287 516 90.3 516H425.7C475.571 516 516 475.571 516 425.7V90.3C516 40.4287 475.571 0 425.7 0Z" fill="#001E36"/>
<path d="M116.1 365.827V147.493C116.1 145.93 116.883 145.149 118.448 145.149C135.44 144.703 157.017 144.479 183.177 144.479C214.032 144.479 236.614 151.4 250.924 165.241C265.457 179.082 272.724 196.161 272.724 216.476C272.724 241.703 263.78 260.455 245.893 272.734C228.006 285.012 205.535 291.151 178.481 291.151H158.694V365.492C158.694 367.278 157.799 368.171 156.011 368.171H118.783C116.994 368.171 116.1 367.389 116.1 365.827ZM158.694 176.627V259.004C161.824 259.45 169.09 259.674 180.493 259.674C195.474 259.674 207.548 256.437 216.715 249.963C226.105 243.265 230.801 232.438 230.801 217.48C230.801 204.309 226.664 194.151 218.392 187.008C210.343 179.864 198.604 176.292 183.177 176.292C179.376 176.292 175.575 176.403 171.774 176.627C168.196 176.627 165.178 176.627 162.718 176.627C160.482 176.627 159.141 176.627 158.694 176.627Z" fill="#31A8FE"/>
<path d="M389.735 243.6C377.215 235.787 364.135 231.88 350.496 231.88C342.67 231.88 336.857 233.331 333.056 236.233C329.478 239.135 327.69 242.595 327.69 246.614C327.69 250.632 329.255 254.204 332.385 257.33C335.515 260.232 342.111 263.692 352.173 267.711C370.73 274.854 383.699 282.445 391.077 290.481C398.679 298.295 402.48 308.453 402.48 320.954C402.48 336.135 396.667 348.414 385.04 357.79C373.637 366.943 358.098 371.519 338.422 371.519C318.746 371.519 302.648 367.947 290.127 360.804C288.785 360.357 288.115 359.241 288.115 357.455V326.312C288.115 325.419 288.338 324.861 288.785 324.638C289.456 324.191 290.015 324.191 290.462 324.638C304.995 335.354 320.535 340.712 337.08 340.712C344.906 340.712 350.831 339.372 354.856 336.693C359.104 333.791 361.228 330.107 361.228 325.643C361.228 320.954 359.551 317.048 356.197 313.922C352.843 310.574 346.248 307.002 336.41 303.206C318.523 296.286 306.002 288.919 298.847 281.105C291.916 273.068 288.45 263.022 288.45 250.967C288.45 237.126 293.704 225.517 304.213 216.141C314.722 206.765 329.702 202.077 349.154 202.077C367.265 202.077 381.239 204.532 391.077 209.444C392.195 210.113 392.754 211.564 392.754 213.797V241.591C392.754 244.27 391.748 244.94 389.735 243.6Z" fill="#31A8FE"/>
</svg>
