<svg width="516" height="516" viewBox="0 0 516 516" fill="none" xmlns="http://www.w3.org/2000/svg">
<g clip-path="url(#clip0_0_76)">
<path d="M91.375 4.15904e-05H424.625C436.628 -0.0115611 448.515 2.40461 459.606 7.11026C470.697 11.8159 480.775 18.7187 489.262 27.4235C497.749 36.1283 504.48 46.4643 509.068 57.84C513.656 69.2156 516.011 81.4075 516 93.718V422.282C516.011 434.592 513.656 446.784 509.068 458.16C504.48 469.536 497.749 479.872 489.262 488.576C480.775 497.281 470.697 504.184 459.606 508.89C448.515 513.595 436.628 516.012 424.625 516H91.375C79.3723 516.012 67.4852 513.595 56.394 508.89C45.3027 504.184 35.2251 497.281 26.7379 488.576C18.2507 479.872 11.5205 469.536 6.93251 458.16C2.34449 446.784 -0.0112721 434.592 4.05506e-05 422.282V93.718C-0.0112721 81.4075 2.34449 69.2156 6.93251 57.84C11.5205 46.4643 18.2507 36.1283 26.7379 27.4235C35.2251 18.7187 45.3027 11.8159 56.394 7.11026C67.4852 2.40461 79.3723 -0.0115611 91.375 4.15904e-05V4.15904e-05Z" fill="#777BB3"/>
<path d="M121.724 288.147C134.271 288.147 143.637 285.833 149.563 281.272C155.426 276.758 159.476 268.937 161.598 258.027C163.577 247.83 162.823 240.71 159.358 236.868C155.815 232.943 148.155 230.953 136.592 230.953H116.541L105.426 288.147H121.724ZM56.1453 358.6C55.2146 358.6 54.3307 358.184 53.739 357.464C53.1462 356.746 52.906 355.8 53.0838 354.885L82.542 203.32C82.8269 201.854 84.1112 200.796 85.6045 200.796H149.094C169.048 200.796 183.9 206.214 193.235 216.901C202.62 227.644 205.518 242.661 201.848 261.534C200.355 269.223 197.786 276.364 194.214 282.757C190.638 289.158 185.912 295.08 180.164 300.363C173.284 306.802 165.498 311.471 157.041 314.218C148.719 316.929 138.031 318.304 125.274 318.304H99.5662L92.2245 356.075C91.9396 357.541 90.6563 358.6 89.163 358.6H56.1453Z" fill="black"/>
<path d="M119.113 234.072H136.592C150.548 234.072 155.396 237.135 157.044 238.96C159.776 241.99 160.292 248.379 158.536 257.436C156.562 267.575 152.904 274.764 147.661 278.8C142.293 282.933 133.566 285.027 121.724 285.027H109.21L119.113 234.072ZM149.095 197.676H85.6037C82.6171 197.676 80.0496 199.793 79.4797 202.725L50.0215 354.291C49.6659 356.12 50.1463 358.011 51.3308 359.45C52.5162 360.888 54.282 361.72 56.1455 361.72H89.1622C92.1498 361.72 94.7173 359.602 95.2872 356.671L102.138 321.424H125.275C138.359 321.424 149.373 319.997 158.01 317.184C166.891 314.298 175.063 309.406 182.295 302.642C188.277 297.139 193.204 290.962 196.937 284.281C200.671 277.597 203.354 270.144 204.911 262.129C208.774 242.263 205.636 226.354 195.584 214.849C185.63 203.454 169.988 197.676 149.095 197.676ZM101.641 291.267H121.724C135.036 291.267 144.952 288.759 151.467 283.744C157.983 278.728 162.377 270.355 164.661 258.623C166.846 247.359 165.85 239.41 161.675 234.779C157.495 230.149 149.135 227.833 136.592 227.833H113.97L101.641 291.267V291.267ZM149.095 203.915C168.194 203.915 182.128 208.928 190.886 218.953C199.643 228.979 202.28 242.973 198.786 260.939C197.348 268.34 194.916 275.107 191.491 281.237C188.063 287.371 183.586 292.98 178.054 298.067C171.461 304.236 164.137 308.633 156.077 311.251C148.018 313.877 137.753 315.184 125.275 315.184H96.9937L89.1622 355.48H56.1455L85.6037 203.915H149.095" fill="white"/>
<path d="M277.551 318.304C276.62 318.304 275.737 317.888 275.145 317.169C274.551 316.45 274.311 315.505 274.489 314.59L287.52 247.528C288.759 241.15 288.454 236.572 286.66 234.638C285.562 233.456 282.263 231.473 272.51 231.473H248.902L232.519 315.779C232.234 317.246 230.949 318.304 229.456 318.304H196.699C195.768 318.304 194.885 317.888 194.292 317.169C193.699 316.45 193.459 315.504 193.637 314.59L223.095 163.024C223.38 161.558 224.664 160.5 226.158 160.5H258.914C259.846 160.5 260.729 160.916 261.322 161.634C261.914 162.354 262.155 163.299 261.977 164.214L254.868 200.796H280.264C299.612 200.796 312.731 204.207 320.372 211.224C328.161 218.383 330.591 229.829 327.596 245.248L313.891 315.779C313.606 317.246 312.322 318.304 310.828 318.304H277.551Z" fill="black"/>
<path d="M258.914 157.379H226.158C223.17 157.379 220.603 159.497 220.033 162.428L190.574 313.994C190.219 315.823 190.699 317.715 191.885 319.153C193.07 320.591 194.836 321.423 196.699 321.423H229.456C232.443 321.423 235.011 319.306 235.581 316.374L251.474 234.592H272.51C282.247 234.592 284.29 236.671 284.372 236.761C284.963 237.396 285.74 240.339 284.457 246.932L271.426 313.994C271.071 315.823 271.551 317.715 272.737 319.153C273.922 320.591 275.688 321.423 277.551 321.423H310.828C313.815 321.423 316.383 319.306 316.953 316.374L330.658 245.843C333.874 229.287 331.123 216.868 322.483 208.927C314.239 201.355 300.429 197.675 280.265 197.675H258.651L265.039 164.809C265.394 162.98 264.915 161.088 263.729 159.65C262.544 158.212 260.778 157.379 258.914 157.379ZM258.914 163.619L251.083 203.915H280.265C298.626 203.915 311.291 207.12 318.261 213.521C325.232 219.927 327.32 230.306 324.534 244.654L310.828 315.184H277.551L290.582 248.123C292.065 240.494 291.52 235.29 288.946 232.516C286.37 229.742 280.891 228.352 272.51 228.352H246.33L229.456 315.184H196.699L226.158 163.619H258.914Z" fill="white"/>
<path d="M379.427 288.147C391.973 288.147 401.339 285.833 407.266 281.272C413.129 276.759 417.178 268.938 419.301 258.027C421.28 247.83 420.526 240.71 417.061 236.868C413.518 232.943 405.858 230.953 394.294 230.953H374.244L363.128 288.147H379.427ZM313.849 358.6C312.918 358.6 312.034 358.184 311.442 357.464C310.85 356.746 310.608 355.8 310.786 354.885L340.244 203.32C340.53 201.854 341.814 200.796 343.308 200.796H406.797C426.751 200.796 441.602 206.214 450.938 216.901C460.323 227.643 463.22 242.66 459.552 261.534C458.056 269.223 455.489 276.364 451.917 282.757C448.341 289.158 443.614 295.08 437.867 300.363C430.987 306.802 423.2 311.471 414.744 314.218C406.421 316.929 395.733 318.304 382.977 318.304H357.267L349.929 356.075C349.643 357.541 348.36 358.6 346.865 358.6H313.849Z" fill="black"/>
<path d="M376.816 234.072H394.294C408.251 234.072 413.099 237.135 414.746 238.96C417.48 241.99 417.996 248.379 416.238 257.435C414.265 267.575 410.605 274.764 405.363 278.8C399.995 282.933 391.268 285.027 379.427 285.027H366.914L376.816 234.072ZM406.797 197.676H343.307C340.321 197.676 337.753 199.793 337.183 202.725L307.725 354.291C307.369 356.12 307.85 358.011 309.034 359.45C310.22 360.888 311.986 361.72 313.849 361.72H346.866C349.852 361.72 352.421 359.602 352.991 356.671L359.841 321.424H382.977C396.061 321.424 407.076 319.997 415.712 317.184C424.594 314.298 432.767 309.405 440 302.64C445.981 297.138 450.906 290.962 454.64 284.281C458.374 277.597 461.057 270.144 462.614 262.129C466.477 242.262 463.338 226.353 453.287 214.848C443.333 203.454 427.692 197.676 406.797 197.676ZM359.344 291.267H379.427C392.739 291.267 402.654 288.759 409.169 283.744C415.686 278.728 420.08 270.355 422.363 258.623C424.549 247.359 423.554 239.41 419.378 234.779C415.197 230.149 406.838 227.833 394.294 227.833H371.672L359.344 291.267ZM406.797 203.915C425.897 203.915 439.83 208.928 448.588 218.953C457.346 228.979 459.983 242.973 456.489 260.939C455.05 268.34 452.618 275.107 449.194 281.237C445.765 287.371 441.288 292.98 435.756 298.067C429.163 304.236 421.839 308.633 413.78 311.251C405.721 313.877 395.456 315.184 382.977 315.184H354.696L346.866 355.48H313.849L343.307 203.915H406.797" fill="white"/>
</g>
<defs>
<clipPath id="clip0_0_76">
<rect width="516" height="516" fill="white"/>
</clipPath>
</defs>
</svg>
