<svg width="516" height="516" viewBox="0 0 516 516" fill="none" xmlns="http://www.w3.org/2000/svg">
<g clip-path="url(#clip0_0_91)">
<path d="M91.375 4.15904e-05H424.625C436.628 -0.0115611 448.515 2.40461 459.606 7.11026C470.697 11.8159 480.775 18.7187 489.262 27.4235C497.749 36.1283 504.48 46.4643 509.068 57.84C513.656 69.2156 516.011 81.4075 516 93.718V422.282C516.011 434.592 513.656 446.784 509.068 458.16C504.48 469.536 497.749 479.872 489.262 488.576C480.775 497.281 470.697 504.184 459.606 508.89C448.515 513.595 436.628 516.012 424.625 516H91.375C79.3723 516.012 67.4852 513.595 56.394 508.89C45.3027 504.184 35.2251 497.281 26.7379 488.576C18.2507 479.872 11.5205 469.536 6.93251 458.16C2.34449 446.784 -0.0112721 434.592 4.05506e-05 422.282V93.718C-0.0112721 81.4075 2.34449 69.2156 6.93251 57.84C11.5205 46.4643 18.2507 36.1283 26.7379 27.4235C35.2251 18.7187 45.3027 11.8159 56.394 7.11026C67.4852 2.40461 79.3723 -0.0115611 91.375 4.15904e-05V4.15904e-05Z" fill="#000B1D"/>
<path d="M257.273 85.14C167.833 85.14 173.418 123.927 173.418 123.927L173.518 164.109H258.868V176.174H139.617C139.617 176.174 82.3844 169.683 82.3844 259.929C82.3844 350.175 132.338 346.975 132.338 346.975H162.151V305.097C162.151 305.097 160.544 255.143 211.308 255.143C262.071 255.143 295.96 255.143 295.96 255.143C295.96 255.143 343.521 255.912 343.521 209.177C343.521 162.443 343.521 131.903 343.521 131.903C343.521 131.903 350.742 85.14 257.273 85.14ZM210.211 112.161C218.702 112.161 225.566 119.024 225.566 127.516C225.566 136.008 218.702 142.871 210.211 142.871C201.719 142.871 194.856 136.008 194.856 127.516C194.856 119.024 201.719 112.161 210.211 112.161Z" fill="url(#paint0_linear_0_91)"/>
<path d="M259.813 435.623C349.253 435.623 343.668 396.837 343.668 396.837L343.568 356.654H258.218V344.589H377.469C377.469 344.589 434.702 351.08 434.702 260.834C434.702 170.588 384.748 173.789 384.748 173.789H354.935V215.666C354.935 215.666 356.542 265.62 305.779 265.62C255.016 265.62 221.126 265.62 221.126 265.62C221.126 265.62 173.565 264.851 173.565 311.586C173.565 358.32 173.565 388.86 173.565 388.86C173.565 388.86 166.344 435.623 259.813 435.623ZM306.876 408.602C298.384 408.602 291.521 401.739 291.521 393.247C291.521 384.755 298.384 377.892 306.876 377.892C315.367 377.892 322.231 384.755 322.231 393.247C322.231 401.739 315.367 408.602 306.876 408.602Z" fill="url(#paint1_linear_0_91)"/>
</g>
<defs>
<linearGradient id="paint0_linear_0_91" x1="116.243" y1="115.775" x2="290.454" y2="290.569" gradientUnits="userSpaceOnUse">
<stop stop-color="#387EB8"/>
<stop offset="1" stop-color="#366994"/>
</linearGradient>
<linearGradient id="paint1_linear_0_91" x1="223.41" y1="226.971" x2="410.513" y2="406.226" gradientUnits="userSpaceOnUse">
<stop stop-color="#FFE052"/>
<stop offset="1" stop-color="#FFC331"/>
</linearGradient>
<clipPath id="clip0_0_91">
<rect width="516" height="516" fill="white"/>
</clipPath>
</defs>
</svg>
