<svg width="516" height="516" viewBox="0 0 516 516" fill="none" xmlns="http://www.w3.org/2000/svg">
<g clip-path="url(#clip0_0_156)">
<path d="M91.375 4.15904e-05H424.625C436.628 -0.0115611 448.515 2.40461 459.606 7.11026C470.697 11.8159 480.775 18.7187 489.262 27.4235C497.749 36.1283 504.479 46.4643 509.067 57.84C513.656 69.2156 516.011 81.4075 516 93.718V422.282C516.011 434.593 513.656 446.784 509.067 458.16C504.479 469.536 497.749 479.872 489.262 488.576C480.775 497.281 470.697 504.184 459.606 508.89C448.515 513.595 436.628 516.012 424.625 516H91.375C79.3723 516.012 67.4852 513.595 56.394 508.89C45.3027 504.184 35.2251 497.281 26.7379 488.576C18.2507 479.872 11.5205 469.536 6.93251 458.16C2.34449 446.784 -0.0112721 434.593 4.05506e-05 422.282V93.718C-0.0112721 81.4075 2.34449 69.2156 6.93251 57.84C11.5205 46.4643 18.2507 36.1283 26.7379 27.4235C35.2251 18.7187 45.3027 11.8159 56.394 7.11026C67.4852 2.40461 79.3723 -0.0115611 91.375 4.15904e-05V4.15904e-05Z" fill="#000B1D"/>
<g clip-path="url(#clip1_0_156)">
<path d="M258 292.119C277.812 292.119 293.873 276.266 293.873 256.71C293.873 237.154 277.812 221.301 258 221.301C238.188 221.301 222.127 237.154 222.127 256.71C222.127 276.266 238.188 292.119 258 292.119Z" fill="#61DAFB"/>
<path fill-rule="evenodd" clip-rule="evenodd" d="M86.255 234.616C77.5511 242.371 73.8946 249.851 73.8946 256.71C73.8946 263.569 77.5511 271.049 86.255 278.804C94.9581 286.559 108.022 293.922 124.88 300.275C158.536 312.96 205.599 320.979 258 320.979C310.401 320.979 357.464 312.96 391.12 300.275C407.978 293.922 421.042 286.559 429.745 278.804C438.449 271.049 442.105 263.569 442.105 256.71C442.105 249.851 438.449 242.371 429.745 234.616C421.042 226.861 407.978 219.498 391.12 213.145C357.464 200.46 310.401 192.441 258 192.441C205.599 192.441 158.536 200.46 124.88 213.145C108.022 219.498 94.9581 226.861 86.255 234.616ZM118.898 197.681C154.909 184.109 204.091 175.888 258 175.888C311.909 175.888 361.091 184.109 397.102 197.681C415.079 204.456 430.204 212.725 440.982 222.328C451.759 231.931 458.875 243.536 458.875 256.71C458.875 269.884 451.759 281.489 440.982 291.092C430.204 300.695 415.079 308.964 397.102 315.739C361.091 329.311 311.909 337.532 258 337.532C204.091 337.532 154.909 329.311 118.898 315.739C100.921 308.964 85.7959 300.695 75.0178 291.092C64.2407 281.489 57.1246 269.884 57.1246 256.71C57.1246 243.536 64.2407 231.931 75.0178 222.328C85.7959 212.725 100.921 204.456 118.898 197.681Z" fill="#61DAFB"/>
<path fill-rule="evenodd" clip-rule="evenodd" d="M191.513 98.8517C180.356 95.2892 171.965 95.9036 165.947 99.3329C159.93 102.762 155.195 109.628 152.742 120.946C150.29 132.263 150.362 147.112 153.217 164.699C158.916 199.811 175.412 244.051 201.612 288.844C227.812 333.638 258.379 369.858 286.337 392.287C300.34 403.52 313.332 411.006 324.487 414.568C335.644 418.131 344.035 417.516 350.053 414.087C356.07 410.658 360.805 403.792 363.258 392.474C365.71 381.157 365.638 366.308 362.783 348.721C357.084 313.609 340.588 269.369 314.388 224.576C288.188 179.782 257.621 143.562 229.663 121.133C215.66 109.9 202.668 102.414 191.513 98.8517ZM240.24 108.288C270.153 132.285 301.957 170.217 328.911 216.299C355.866 262.381 373.244 308.534 379.342 346.103C382.386 364.857 382.694 381.921 379.657 395.936C376.62 409.95 369.996 421.835 358.438 428.422C346.879 435.01 333.139 434.729 319.326 430.318C305.51 425.906 290.693 417.111 275.76 405.132C245.847 381.135 214.043 343.203 187.089 297.121C160.134 251.039 142.756 204.886 136.658 167.317C133.614 148.563 133.306 131.499 136.343 117.484C139.38 103.47 146.004 91.5847 157.562 84.9976C169.121 78.4104 182.861 78.6912 196.674 83.1023C210.49 87.5138 225.307 96.3085 240.24 108.288Z" fill="#61DAFB"/>
<path fill-rule="evenodd" clip-rule="evenodd" d="M363.258 120.946C360.805 109.628 356.07 102.762 350.053 99.3329C344.035 95.9036 335.644 95.2892 324.487 98.8517C313.332 102.414 300.34 109.9 286.337 121.133C258.379 143.562 227.812 179.782 201.612 224.576C175.412 269.369 158.916 313.609 153.217 348.721C150.362 366.308 150.29 381.157 152.742 392.474C155.195 403.792 159.93 410.658 165.947 414.087C171.965 417.516 180.356 418.131 191.513 414.568C202.668 411.006 215.66 403.52 229.663 392.287C257.621 369.858 288.188 333.638 314.388 288.844C340.588 244.051 357.084 199.811 362.783 164.699C365.638 147.112 365.71 132.263 363.258 120.946ZM379.342 167.317C373.244 204.886 355.866 251.039 328.911 297.121C301.957 343.203 270.153 381.135 240.24 405.132C225.307 417.111 210.49 425.906 196.674 430.318C182.861 434.729 169.121 435.01 157.562 428.422C146.003 421.835 139.38 409.95 136.343 395.936C133.306 381.921 133.614 364.857 136.658 346.103C142.756 308.534 160.134 262.381 187.089 216.299C214.043 170.217 245.847 132.285 275.76 108.288C290.693 96.3085 305.51 87.5138 319.326 83.1023C333.139 78.6912 346.879 78.4104 358.438 84.9976C369.996 91.5847 376.62 103.47 379.657 117.484C382.694 131.499 382.386 148.563 379.342 167.317Z" fill="#61DAFB"/>
</g>
</g>
<defs>
<clipPath id="clip0_0_156">
<rect width="516" height="516" fill="white"/>
</clipPath>
<clipPath id="clip1_0_156">
<rect width="402.48" height="353.46" fill="white" transform="translate(56.76 79.98)"/>
</clipPath>
</defs>
</svg>
