<svg width="516" height="516" viewBox="0 0 516 516" fill="none" xmlns="http://www.w3.org/2000/svg">
<mask id="mask0_0_136" style="mask-type:luminance" maskUnits="userSpaceOnUse" x="0" y="0" width="516" height="516">
<path d="M0 0H516V516H0V0Z" fill="white"/>
</mask>
<g mask="url(#mask0_0_136)">
<path d="M516 258C516 262.223 515.896 266.441 515.689 270.66C515.482 274.877 515.172 279.086 514.758 283.288C514.344 287.491 513.827 291.68 513.207 295.856C512.587 300.032 511.866 304.192 511.042 308.333C510.218 312.474 509.294 316.593 508.269 320.689C507.242 324.785 506.116 328.853 504.891 332.894C503.665 336.933 502.34 340.942 500.919 344.917C499.496 348.893 497.976 352.832 496.361 356.732C494.745 360.633 493.034 364.491 491.229 368.309C489.424 372.126 487.526 375.896 485.536 379.621C483.546 383.343 481.464 387.017 479.293 390.638C477.123 394.26 474.865 397.826 472.518 401.338C470.173 404.848 467.742 408.299 465.228 411.69C462.712 415.082 460.115 418.409 457.437 421.673C454.758 424.938 452.001 428.134 449.165 431.262C446.329 434.39 443.419 437.448 440.433 440.433C437.448 443.419 434.39 446.329 431.262 449.165C428.134 452.001 424.938 454.758 421.673 457.437C418.409 460.115 415.082 462.712 411.69 465.228C408.299 467.742 404.848 470.173 401.336 472.518C397.826 474.865 394.26 477.123 390.638 479.293C387.017 481.464 383.343 483.546 379.621 485.536C375.896 487.526 372.126 489.424 368.309 491.229C364.491 493.034 360.633 494.745 356.732 496.361C352.832 497.976 348.893 499.496 344.917 500.919C340.942 502.34 336.933 503.665 332.894 504.891C328.853 506.116 324.785 507.242 320.689 508.269C316.593 509.294 312.474 510.218 308.333 511.042C304.192 511.866 300.032 512.587 295.856 513.207C291.68 513.827 287.491 514.344 283.288 514.758C279.086 515.172 274.877 515.482 270.659 515.689C266.441 515.896 262.223 516 258 516C253.777 516 249.557 515.896 245.34 515.689C241.123 515.482 236.914 515.172 232.711 514.758C228.509 514.344 224.32 513.827 220.144 513.207C215.966 512.587 211.808 511.866 207.667 511.042C203.525 510.218 199.407 509.294 195.311 508.269C191.215 507.242 187.147 506.116 183.106 504.891C179.065 503.665 175.058 502.34 171.082 500.919C167.107 499.496 163.168 497.976 159.268 496.361C155.367 494.745 151.507 493.034 147.69 491.229C143.874 489.424 140.104 487.526 136.379 485.536C132.655 483.546 128.983 481.464 125.362 479.293C121.74 477.123 118.174 474.865 114.662 472.518C111.152 470.173 107.701 467.742 104.31 465.228C100.918 462.712 97.5909 460.115 94.3259 457.437C91.0623 454.758 87.8663 452.001 84.7379 449.165C81.6096 446.329 78.5516 443.419 75.5669 440.433C72.5808 437.448 69.6694 434.39 66.834 431.262C63.9986 428.134 61.242 424.938 58.563 421.673C55.8839 418.409 53.288 415.082 50.7723 411.69C48.2567 408.299 45.8269 404.848 43.4803 401.338C41.1351 397.826 38.8772 394.26 36.7052 390.638C34.5347 387.017 32.4542 383.343 30.464 379.621C28.4737 375.896 26.5764 372.126 24.7706 368.309C22.9649 364.491 21.2549 360.633 19.6393 356.732C18.0237 352.832 16.5039 348.893 15.0813 344.917C13.6586 340.942 12.3346 336.933 11.1092 332.894C9.88375 328.853 8.75832 324.785 7.73149 320.689C6.70607 316.593 5.78066 312.474 4.95666 308.333C4.13407 304.192 3.41149 300.032 2.79173 295.856C2.17338 291.68 1.65645 287.491 1.24233 283.288C0.828223 279.086 0.518344 274.877 0.311288 270.66C0.102824 266.441 0 262.223 0 258C0 253.777 0.102824 249.557 0.311288 245.34C0.518344 241.123 0.828223 236.914 1.24233 232.711C1.65645 228.509 2.17338 224.32 2.79173 220.144C3.41149 215.966 4.13407 211.808 4.95666 207.667C5.78066 203.525 6.70607 199.407 7.73149 195.311C8.75832 191.215 9.88375 187.147 11.1092 183.106C12.3346 179.065 13.6586 175.058 15.0813 171.082C16.5039 167.107 18.0237 163.168 19.6393 159.268C21.2549 155.367 22.9649 151.507 24.7706 147.69C26.5764 143.874 28.4737 140.104 30.464 136.379C32.4542 132.655 34.5347 128.983 36.7052 125.362C38.8772 121.74 41.1351 118.174 43.4803 114.662C45.8269 111.152 48.2567 107.701 50.7723 104.31C53.288 100.918 55.8839 97.5909 58.563 94.3259C61.242 91.0623 63.9986 87.8663 66.834 84.7379C69.6694 81.6096 72.5808 78.5516 75.5669 75.5669C78.5516 72.5808 81.6096 69.6694 84.7379 66.834C87.8663 63.9986 91.0623 61.242 94.3259 58.563C97.5909 55.8839 100.918 53.288 104.31 50.7723C107.701 48.2567 111.152 45.8269 114.662 43.4803C118.174 41.1351 121.74 38.8772 125.362 36.7052C128.983 34.5347 132.655 32.4542 136.379 30.464C140.104 28.4737 143.874 26.5764 147.69 24.7706C151.507 22.9649 155.367 21.2549 159.268 19.6393C163.168 18.0237 167.107 16.5039 171.082 15.0813C175.058 13.6586 179.065 12.3346 183.106 11.1092C187.147 9.88375 191.215 8.75832 195.311 7.73149C199.407 6.70607 203.525 5.78066 207.667 4.95666C211.808 4.13407 215.966 3.41149 220.144 2.79173C224.32 2.17338 228.509 1.65645 232.711 1.24233C236.914 0.828223 241.123 0.518344 245.34 0.311288C249.557 0.102824 253.777 0 258 0C262.223 0 266.441 0.102824 270.659 0.311288C274.877 0.518344 279.086 0.828223 283.288 1.24233C287.491 1.65645 291.68 2.17338 295.856 2.79173C300.032 3.41149 304.192 4.13407 308.333 4.95666C312.474 5.78066 316.593 6.70607 320.689 7.73149C324.785 8.75832 328.853 9.88375 332.894 11.1092C336.933 12.3346 340.942 13.6586 344.917 15.0813C348.893 16.5039 352.832 18.0237 356.732 19.6393C360.633 21.2549 364.491 22.9649 368.309 24.7706C372.126 26.5764 375.896 28.4737 379.621 30.464C383.343 32.4542 387.017 34.5347 390.638 36.7052C394.26 38.8772 397.826 41.1351 401.336 43.4803C404.848 45.8269 408.299 48.2567 411.69 50.7723C415.082 53.288 418.409 55.8839 421.673 58.563C424.938 61.242 428.134 63.9986 431.262 66.834C434.39 69.6694 437.448 72.5808 440.433 75.5669C443.419 78.5516 446.329 81.6096 449.165 84.7379C452.001 87.8663 454.758 91.0623 457.437 94.3259C460.115 97.5909 462.712 100.918 465.228 104.31C467.742 107.701 470.173 111.152 472.518 114.662C474.865 118.174 477.123 121.74 479.293 125.362C481.464 128.983 483.546 132.655 485.536 136.379C487.526 140.104 489.424 143.874 491.229 147.69C493.034 151.507 494.745 155.367 496.361 159.268C497.976 163.168 499.496 167.107 500.919 171.082C502.34 175.058 503.665 179.065 504.891 183.106C506.116 187.147 507.242 191.215 508.269 195.311C509.294 199.407 510.218 203.525 511.042 207.667C511.866 211.808 512.587 215.966 513.207 220.144C513.827 224.32 514.344 228.509 514.758 232.711C515.172 236.914 515.482 241.123 515.689 245.34C515.896 249.557 516 253.777 516 258Z" fill="white"/>
</g>
<path d="M36.7147 257.993C36.7147 345.619 87.6082 421.28 161.45 457.155L55.861 167.91C43.5715 195.462 36.7147 225.852 36.7147 257.993ZM407.405 246.845C407.405 219.51 397.575 200.527 389.183 185.835C377.953 167.449 367.403 152.145 367.403 133.936C367.403 113.677 382.895 94.6514 404.609 94.6514C405.587 94.6514 406.469 94.7331 407.446 94.7599C368.081 58.5998 315.626 36.6969 257.997 36.6969C180.665 36.6969 112.634 76.4024 73.065 136.488C78.2794 136.598 83.1544 136.678 87.3504 136.678C110.434 136.678 146.323 133.936 146.323 133.936C158.218 133.134 159.672 150.706 147.695 152.145C147.695 152.145 135.745 153.585 122.425 154.223L203.028 393.987L251.451 248.773L216.962 154.223C205.067 153.585 193.755 152.145 193.755 152.145C181.833 151.358 183.203 133.122 195.112 133.936C195.112 133.936 231.722 136.678 253.447 136.678C276.614 136.678 312.434 133.936 312.434 133.936C324.343 133.134 325.769 150.706 313.861 152.145C313.861 152.145 301.817 153.585 288.509 154.223L368.448 392.112L390.567 318.406C401.812 289.646 407.405 265.868 407.405 246.845ZM261.866 277.303L195.479 470.259C215.332 476.167 236.284 479.289 257.997 479.289C283.742 479.289 308.456 474.807 331.513 466.742C330.983 465.764 330.345 464.76 329.897 463.687L261.866 277.303ZM452.217 151.765C453.194 158.812 453.724 166.39 453.724 174.51C453.724 197.023 449.473 222.267 436.859 253.879L369.29 449.361C435.08 411.014 479.293 339.656 479.293 258.007C479.293 219.537 469.447 183.349 452.217 151.765Z" fill="#01579B"/>
<mask id="mask1_0_136" style="mask-type:luminance" maskUnits="userSpaceOnUse" x="0" y="0" width="516" height="516">
<path d="M0 0H516V516H0V0Z" fill="white"/>
</mask>
<g mask="url(#mask1_0_136)">
<path d="M0 258C0 400.212 115.706 516 258 516C400.294 516 516 400.212 516 258C516 115.788 400.294 0 258 0C115.706 0 0 115.788 0 258ZM11.8275 258C11.8275 122.332 122.223 11.9092 257.986 11.9092C393.762 11.9092 504.158 122.332 504.158 258C504.158 393.667 393.762 504.119 258 504.119C122.252 504.119 11.8275 393.667 11.8275 258Z" fill="#01579B"/>
</g>
</svg>
