<svg width="1416" height="296" viewBox="0 0 1416 296" fill="none" xmlns="http://www.w3.org/2000/svg">
<path d="M305.312 0H174.122C174.122 28.1922 197.539 54.6928 221.52 54.6928H299.105C304.466 55.2566 315.187 60.1057 315.187 74.9911C315.187 89.8766 304.466 94.5377 299.105 95.0076H198.867C198.867 130.53 228.208 147.163 245.418 147.163H336.628C341.048 149.7 349.832 157.651 349.606 169.153C349.381 180.655 340.86 188.042 336.628 190.297H224.241C224.241 233.995 269.1 241.889 276.153 241.889H315.187C385.422 241.889 401.706 195.466 403.775 178.174V159.004C403.775 154.211 396.722 113.896 363.149 102.056C389.782 37.7775 333.243 0 305.312 0Z" fill="#414AF2"/>
<path d="M98.199 30.2424C6.8146 156.169 1.71517 236.28 0 292.008C41.1642 151.575 105.917 80.1397 131.13 59.0491C140.907 259.668 200.651 311.582 330.832 292.008C407.54 280.474 446.365 244.477 510.602 255.37C488.483 243.065 450.13 235.041 419.305 242.83C350.362 260.252 332.95 259.668 291.671 259.668C131.645 268.413 223.75 -107.104 98.199 30.2424Z" fill="#414AF2"/>
<path d="M1279.45 240.167H1247.2V0H1279.45V100.87H1383.75V0H1416V240.167H1383.75V131.062H1279.45V240.167Z" fill="#414AF2"/>
<path d="M1195.42 0V30.1924H1134.69C1111.59 30.1924 1100.04 39.5703 1100.04 58.3262C1100.04 68.3903 1105.07 76.9677 1115.14 84.0584C1125.43 90.9203 1139.27 97.5534 1156.65 103.958C1164.43 106.931 1171.06 110.019 1176.55 113.221C1182.04 116.195 1187.53 120.198 1193.02 125.23C1198.51 130.262 1202.62 136.781 1205.37 144.786C1208.11 152.563 1209.49 161.598 1209.49 171.891C1209.49 183.327 1207.09 193.62 1202.28 202.769C1197.48 211.69 1191.3 218.78 1183.75 224.041C1176.21 229.073 1168.43 232.962 1160.42 235.706C1152.65 238.223 1144.98 239.595 1137.44 239.824C1134.23 240.052 1129.66 240.167 1123.71 240.167H1070.19V209.974H1122.68C1138.24 209.974 1150.93 206.772 1160.77 200.368C1170.6 193.734 1175.52 184.128 1175.52 171.548C1175.52 165.372 1174.15 159.997 1171.4 155.422C1168.66 150.619 1164.66 146.502 1159.39 143.071C1154.36 139.64 1149.1 136.666 1143.61 134.15C1138.35 131.634 1131.95 129.004 1124.4 126.259C1122.34 125.573 1120.74 125.001 1119.6 124.544C1083.69 110.82 1065.73 88.4042 1065.73 57.2969C1065.73 38.0836 1071.91 23.7879 1084.26 14.41C1096.61 4.80334 1112.73 0 1132.63 0H1195.42Z" fill="#414AF2"/>
<path d="M1034.92 240.167H898.365V57.2969C898.365 40.3709 903.74 26.7614 914.491 16.4686C921.81 9.60668 930.044 5.14643 939.194 3.08786C948.343 1.02929 959.551 0 972.817 0H1034.92V30.1924H968.357C943.196 30.1924 930.616 40.714 930.616 61.7572V100.87H1009.87V131.062H930.616V209.974H1034.92V240.167Z" fill="#414AF2"/>
<path d="M860.689 240.167H724.137V57.2969C724.137 40.3709 729.512 26.7614 740.262 16.4686C747.582 9.60668 755.816 5.14643 764.965 3.08786C774.114 1.02929 785.322 0 798.588 0H860.689V30.1924H794.128C768.968 30.1924 756.388 40.714 756.388 61.7572V100.87H835.643V131.062H756.388V209.974H860.689V240.167Z" fill="#414AF2"/>
<path d="M542.664 240.167H510.413V0H595.157C623.52 0 644.677 6.40445 658.63 19.2133C672.582 31.7935 679.559 51.693 679.559 78.9119V240.167H647.308V74.4517C647.308 58.898 642.504 47.6903 632.898 40.8284C623.52 33.7377 611.054 30.1924 595.5 30.1924H542.664V240.167Z" fill="#414AF2"/>
<path d="M462.251 240.167H430V0H462.251V240.167Z" fill="#414AF2"/>
</svg>
